<svg version="1.1" viewBox="0.0 0.0 884.0 546.0" fill="none" stroke="none" stroke-linecap="square" stroke-miterlimit="10" width="884" height="546" xmlns:xlink="http://www.w3.org/1999/xlink" xmlns="http://www.w3.org/2000/svg"><path fill="#ffffff" d="M0 0L884.0 0L884.0 546.0L0 546.0L0 0Z" fill-rule="nonzero"/><path stroke="#333333" stroke-width="1.0" stroke-linecap="butt" d="M105.5 448.5L856.5 448.5" fill-rule="nonzero"/><path stroke="#cccccc" stroke-width="1.0" stroke-linecap="butt" d="M105.5 397.5L856.5 397.5" fill-rule="nonzero"/><path stroke="#cccccc" stroke-width="1.0" stroke-linecap="butt" d="M105.5 345.5L856.5 345.5" fill-rule="nonzero"/><path stroke="#cccccc" stroke-width="1.0" stroke-linecap="butt" d="M105.5 294.5L856.5 294.5" fill-rule="nonzero"/><path stroke="#cccccc" stroke-width="1.0" stroke-linecap="butt" d="M105.5 242.5L856.5 242.5" fill-rule="nonzero"/><path stroke="#cccccc" stroke-width="1.0" stroke-linecap="butt" d="M105.5 191.5L856.5 191.5" fill-rule="nonzero"/><path stroke="#cccccc" stroke-width="1.0" stroke-linecap="butt" d="M105.5 139.5L856.5 139.5" fill-rule="nonzero"/><path stroke="#cccccc" stroke-width="1.0" stroke-linecap="butt" d="M105.5 88.5L856.5 88.5" fill-rule="nonzero"/><path stroke="#cccccc" stroke-width="1.0" stroke-linecap="butt" d="M105.5 36.5L856.5 36.5" fill-rule="nonzero"/><path stroke="#e6e6e6" stroke-width="1.0" stroke-linecap="butt" d="M105.5 438.5L856.5 438.5" fill-rule="nonzero"/><path stroke="#e6e6e6" stroke-width="1.0" stroke-linecap="butt" d="M105.5 428.5L856.5 428.5" fill-rule="nonzero"/><path stroke="#e6e6e6" stroke-width="1.0" stroke-linecap="butt" d="M105.5 417.5L856.5 417.5" fill-rule="nonzero"/><path stroke="#e6e6e6" stroke-width="1.0" stroke-linecap="butt" d="M105.5 407.5L856.5 407.5" fill-rule="nonzero"/><path stroke="#e6e6e6" stroke-width="1.0" stroke-linecap="butt" d="M105.5 386.5L856.5 386.5" fill-rule="nonzero"/><path stroke="#e6e6e6" stroke-width="1.0" stroke-linecap="butt" d="M105.5 376.5L856.5 376.5" fill-rule="nonzero"/><path stroke="#e6e6e6" stroke-width="1.0" stroke-linecap="butt" d="M105.5 366.5L856.5 366.5" fill-rule="nonzero"/><path stroke="#e6e6e6" stroke-width="1.0" stroke-linecap="butt" d="M105.5 356.5L856.5 356.5" fill-rule="nonzero"/><path stroke="#e6e6e6" stroke-width="1.0" stroke-linecap="butt" d="M105.5 335.5L856.5 335.5" fill-rule="nonzero"/><path stroke="#e6e6e6" stroke-width="1.0" stroke-linecap="butt" d="M105.5 325.5L856.5 325.5" fill-rule="nonzero"/><path stroke="#e6e6e6" stroke-width="1.0" stroke-linecap="butt" d="M105.5 314.5L856.5 314.5" fill-rule="nonzero"/><path stroke="#e6e6e6" stroke-width="1.0" stroke-linecap="butt" d="M105.5 304.5L856.5 304.5" fill-rule="nonzero"/><path stroke="#e6e6e6" stroke-width="1.0" stroke-linecap="butt" d="M105.5 283.5L856.5 283.5" fill-rule="nonzero"/><path stroke="#e6e6e6" stroke-width="1.0" stroke-linecap="butt" d="M105.5 273.5L856.5 273.5" fill-rule="nonzero"/><path stroke="#e6e6e6" stroke-width="1.0" stroke-linecap="butt" d="M105.5 263.5L856.5 263.5" fill-rule="nonzero"/><path stroke="#e6e6e6" stroke-width="1.0" stroke-linecap="butt" d="M105.5 253.5L856.5 253.5" fill-rule="nonzero"/><path stroke="#e6e6e6" stroke-width="1.0" stroke-linecap="butt" d="M105.5 232.5L856.5 232.5" fill-rule="nonzero"/><path stroke="#e6e6e6" stroke-width="1.0" stroke-linecap="butt" d="M105.5 222.5L856.5 222.5" fill-rule="nonzero"/><path stroke="#e6e6e6" stroke-width="1.0" stroke-linecap="butt" d="M105.5 211.5L856.5 211.5" fill-rule="nonzero"/><path stroke="#e6e6e6" stroke-width="1.0" stroke-linecap="butt" d="M105.5 201.5L856.5 201.5" fill-rule="nonzero"/><path stroke="#e6e6e6" stroke-width="1.0" stroke-linecap="butt" d="M105.5 180.5L856.5 180.5" fill-rule="nonzero"/><path stroke="#e6e6e6" stroke-width="1.0" stroke-linecap="butt" d="M105.5 170.5L856.5 170.5" fill-rule="nonzero"/><path stroke="#e6e6e6" stroke-width="1.0" stroke-linecap="butt" d="M105.5 160.5L856.5 160.5" fill-rule="nonzero"/><path stroke="#e6e6e6" stroke-width="1.0" stroke-linecap="butt" d="M105.5 150.5L856.5 150.5" fill-rule="nonzero"/><path stroke="#e6e6e6" stroke-width="1.0" stroke-linecap="butt" d="M105.5 129.5L856.5 129.5" fill-rule="nonzero"/><path stroke="#e6e6e6" stroke-width="1.0" stroke-linecap="butt" d="M105.5 119.5L856.5 119.5" fill-rule="nonzero"/><path stroke="#e6e6e6" stroke-width="1.0" stroke-linecap="butt" d="M105.5 108.5L856.5 108.5" fill-rule="nonzero"/><path stroke="#e6e6e6" stroke-width="1.0" stroke-linecap="butt" d="M105.5 98.5L856.5 98.5" fill-rule="nonzero"/><path stroke="#e6e6e6" stroke-width="1.0" stroke-linecap="butt" d="M105.5 77.5L856.5 77.5" fill-rule="nonzero"/><path stroke="#e6e6e6" stroke-width="1.0" stroke-linecap="butt" d="M105.5 67.5L856.5 67.5" fill-rule="nonzero"/><path stroke="#e6e6e6" stroke-width="1.0" stroke-linecap="butt" d="M105.5 57.5L856.5 57.5" fill-rule="nonzero"/><path stroke="#e6e6e6" stroke-width="1.0" stroke-linecap="butt" d="M105.5 47.5L856.5 47.5" fill-rule="nonzero"/><clipPath id="id_0"><path d="M105.3 36.8L856.7 36.8L856.7 448.7L105.3 448.7L105.3 36.8Z" clip-rule="nonzero"/></clipPath><path fill="#4285f4" clip-path="url(#id_0)" d="M125.45417 348.29938C125.45417 350.78467 123.439445 352.79938 120.95417 352.79938C118.46889 352.79938 116.45417 350.78467 116.45417 348.29938C116.45417 345.8141 118.46889 343.79938 120.95417 343.79938C123.439445 343.79938 125.45417 345.8141 125.45417 348.29938Z" fill-rule="nonzero"/><path fill="#4285f4" clip-path="url(#id_0)" d="M156.7625 296.8119C156.7625 299.29715 154.74779 301.3119 152.2625 301.3119C149.77722 301.3119 147.7625 299.29715 147.7625 296.8119C147.7625 294.3266 149.77722 292.3119 152.2625 292.3119C154.74779 292.3119 156.7625 294.3266 156.7625 296.8119Z" fill-rule="nonzero"/><path fill="#4285f4" clip-path="url(#id_0)" d="M188.07083 219.58063C188.07083 222.0659 186.05612 224.08063 183.57083 224.08063C181.08556 224.08063 179.07083 222.0659 179.07083 219.58063C179.07083 217.09534 181.08556 215.08063 183.57083 215.08063C186.05612 215.08063 188.07083 217.09534 188.07083 219.58063Z" fill-rule="nonzero"/><path fill="#4285f4" clip-path="url(#id_0)" d="M219.37917 103.73375C219.37917 106.21903 217.36444 108.23375 214.87917 108.23375C212.39389 108.23375 210.37917 106.21903 210.37917 103.73375C210.37917 101.24847 212.39389 99.23375 214.87917 99.23375C217.36444 99.23375 219.37917 101.24847 219.37917 103.73375Z" fill-rule="nonzero"/><path fill="#4285f4" clip-path="url(#id_0)" d="M250.6875 276.2169C250.6875 278.70215 248.67278 280.7169 246.1875 280.7169C243.70222 280.7169 241.6875 278.70215 241.6875 276.2169C241.6875 273.7316 243.70222 271.7169 246.1875 271.7169C248.67278 271.7169 250.6875 273.7316 250.6875 276.2169Z" fill-rule="nonzero"/><path fill="#4285f4" clip-path="url(#id_0)" d="M281.99582 188.68813C281.99582 191.1734 279.9811 193.18813 277.49582 193.18813C275.01056 193.18813 272.99582 191.1734 272.99582 188.68813C272.99582 186.20285 275.01056 184.18813 277.49582 184.18813C279.9811 184.18813 281.99582 186.20285 281.99582 188.68813Z" fill-rule="nonzero"/><path fill="#4285f4" clip-path="url(#id_0)" d="M313.30417 57.395C313.30417 59.88028 311.28946 61.895 308.80417 61.895C306.31888 61.895 304.30417 59.88028 304.30417 57.395C304.30417 54.909718 306.31888 52.895 308.80417 52.895C311.28946 52.895 313.30417 54.909718 313.30417 57.395Z" fill-rule="nonzero"/><path fill="#4285f4" clip-path="url(#id_0)" d="M344.6125 253.0475C344.6125 255.53278 342.59778 257.5475 340.1125 257.5475C337.62723 257.5475 335.6125 255.53278 335.6125 253.0475C335.6125 250.56223 337.62723 248.5475 340.1125 248.5475C342.59778 248.5475 344.6125 250.56223 344.6125 253.0475Z" fill-rule="nonzero"/><path fill="#4285f4" clip-path="url(#id_0)" d="M375.92084 350.87375C375.92084 353.35904 373.90613 355.37375 371.42084 355.37375C368.93555 355.37375 366.92084 353.35904 366.92084 350.87375C366.92084 348.38846 368.93555 346.37375 371.42084 346.37375C373.90613 346.37375 375.92084 348.38846 375.92084 350.87375Z" fill-rule="nonzero"/><path fill="#4285f4" clip-path="url(#id_0)" d="M407.22916 399.78687C407.22916 402.27216 405.21445 404.28687 402.72916 404.28687C400.2439 404.28687 398.22916 402.27216 398.22916 399.78687C398.22916 397.3016 400.2439 395.28687 402.72916 395.28687C405.21445 395.28687 407.22916 397.3016 407.22916 399.78687Z" fill-rule="nonzero"/><path fill="#4285f4" clip-path="url(#id_0)" d="M438.5375 374.04312C438.5375 376.5284 436.5228 378.54312 434.0375 378.54312C431.55222 378.54312 429.5375 376.5284 429.5375 374.04312C429.5375 371.55783 431.55222 369.54312 434.0375 369.54312C436.5228 369.54312 438.5375 371.55783 438.5375 374.04312Z" fill-rule="nonzero"/><path fill="#4285f4" clip-path="url(#id_0)" d="M469.84583 335.4275C469.84583 337.91278 467.83112 339.9275 465.34583 339.9275C462.86057 339.9275 460.84583 337.91278 460.84583 335.4275C460.84583 332.94223 462.86057 330.9275 465.34583 330.9275C467.83112 330.9275 469.84583 332.94223 469.84583 335.4275Z" fill-rule="nonzero"/><path fill="#4285f4" clip-path="url(#id_0)" d="M501.15417 392.06375C501.15417 394.54904 499.13943 396.56375 496.65417 396.56375C494.16888 396.56375 492.15417 394.54904 492.15417 392.06375C492.15417 389.57846 494.16888 387.56375 496.65417 387.56375C499.13943 387.56375 501.15417 389.57846 501.15417 392.06375Z" fill-rule="nonzero"/><path fill="#4285f4" clip-path="url(#id_0)" d="M532.4625 420.38187C532.4625 422.86716 530.44775 424.88187 527.9625 424.88187C525.47723 424.88187 523.4625 422.86716 523.4625 420.38187C523.4625 417.8966 525.47723 415.88187 527.9625 415.88187C530.44775 415.88187 532.4625 417.8966 532.4625 420.38187Z" fill-rule="nonzero"/><path fill="#4285f4" clip-path="url(#id_0)" d="M563.7708 404.93564C563.7708 407.4209 561.7561 409.43564 559.2708 409.43564C556.7855 409.43564 554.7708 407.4209 554.7708 404.93564C554.7708 402.45035 556.7855 400.43564 559.2708 400.43564C561.7561 400.43564 563.7708 402.45035 563.7708 404.93564Z" fill-rule="nonzero"/><path fill="#4285f4" clip-path="url(#id_0)" d="M595.07916 381.76624C595.07916 384.25153 593.06445 386.26624 590.57916 386.26624C588.0939 386.26624 586.07916 384.25153 586.07916 381.76624C586.07916 379.28098 588.0939 377.26624 590.57916 377.26624C593.06445 377.26624 595.07916 379.28098 595.07916 381.76624Z" fill-rule="nonzero"/><path fill="#4285f4" clip-path="url(#id_0)" d="M626.3875 415.23312C626.3875 417.7184 624.3728 419.73312 621.8875 419.73312C619.4022 419.73312 617.3875 417.7184 617.3875 415.23312C617.3875 412.74783 619.4022 410.73312 621.8875 410.73312C624.3728 410.73312 626.3875 412.74783 626.3875 415.23312Z" fill-rule="nonzero"/><path fill="#4285f4" clip-path="url(#id_0)" d="M657.69586 397.2125C657.69586 399.69778 655.6811 401.7125 653.19586 401.7125C650.7106 401.7125 648.69586 399.69778 648.69586 397.2125C648.69586 394.7272 650.7106 392.7125 653.19586 392.7125C655.6811 392.7125 657.69586 394.7272 657.69586 397.2125Z" fill-rule="nonzero"/><path fill="#4285f4" clip-path="url(#id_0)" d="M689.00415 422.95624C689.00415 425.44153 686.98944 427.45624 684.50415 427.45624C682.01886 427.45624 680.00415 425.44153 680.00415 422.95624C680.00415 420.47098 682.01886 418.45624 684.50415 418.45624C686.98944 418.45624 689.00415 420.47098 689.00415 422.95624Z" fill-rule="nonzero"/><path fill="#4285f4" clip-path="url(#id_0)" d="M720.3125 435.82812C720.3125 438.31342 718.2978 440.32812 715.8125 440.32812C713.3272 440.32812 711.3125 438.31342 711.3125 435.82812C711.3125 433.34283 713.3272 431.32812 715.8125 431.32812C718.2978 431.32812 720.3125 433.34283 720.3125 435.82812Z" fill-rule="nonzero"/><path fill="#4285f4" clip-path="url(#id_0)" d="M751.62085 428.105C751.62085 430.59027 749.60614 432.605 747.12085 432.605C744.63556 432.605 742.62085 430.59027 742.62085 428.105C742.62085 425.61972 744.63556 423.605 747.12085 423.605C749.60614 423.605 751.62085 425.61972 751.62085 428.105Z" fill-rule="nonzero"/><path fill="#4285f4" clip-path="url(#id_0)" d="M782.92914 438.4025C782.92914 440.8878 780.9144 442.9025 778.42914 442.9025C775.9439 442.9025 773.92914 440.8878 773.92914 438.4025C773.92914 435.9172 775.9439 433.9025 778.42914 433.9025C780.9144 433.9025 782.92914 435.9172 782.92914 438.4025Z" fill-rule="nonzero"/><path fill="#4285f4" clip-path="url(#id_0)" d="M814.2375 443.55124C814.2375 446.03653 812.2228 448.05124 809.7375 448.05124C807.2522 448.05124 805.2375 446.03653 805.2375 443.55124C805.2375 441.06598 807.2522 439.05124 809.7375 439.05124C812.2228 439.05124 814.2375 441.06598 814.2375 443.55124Z" fill-rule="nonzero"/><path fill="#4285f4" clip-path="url(#id_0)" d="M845.54584 446.1256C845.54584 448.6109 843.5311 450.6256 841.04584 450.6256C838.56055 450.6256 836.54584 448.6109 836.54584 446.1256C836.54584 443.64035 838.56055 441.6256 841.04584 441.6256C843.5311 441.6256 845.54584 443.64035 845.54584 446.1256Z" fill-rule="nonzero"/><path fill="#000000" d="M478.0625 514.7L478.0625 503.2469L479.46875 503.2469L479.46875 509.77814L482.79688 506.40314L484.625 506.40314L481.45312 509.48126L484.9375 514.7L483.20312 514.7L480.46875 510.45L479.46875 511.40314L479.46875 514.7L478.0625 514.7Z" fill-rule="nonzero"/><path fill="#000000" d="M42.30001 261.34375L32.190636 261.34375L32.190636 265.125L30.846888 265.125L30.846888 256.04688L32.190636 256.04688L32.190636 259.82812L42.30001 259.82812L42.30001 261.34375ZM45.67501 251.75Q44.20626 252.92188 42.23751 253.73438Q40.253136 254.53125 38.14376 254.53125Q36.284386 254.53125 34.58126 253.92188Q32.61251 253.21875 30.643763 251.75L30.643763 250.75Q32.26876 251.6875 32.971886 252.0Q34.05001 252.46875 35.221886 252.75Q36.67501 253.07812 38.159386 253.07812Q41.909386 253.07812 45.67501 250.75L45.67501 251.75ZM42.30001 250.375L37.98751 247.34375L34.003136 250.15625L34.003136 248.39062L35.940636 247.125Q36.503136 246.76562 36.878136 246.54688Q36.36251 246.20312 35.95626 245.90625L34.003136 244.51562L34.003136 242.82812L37.909386 245.70312L42.30001 242.60938L42.30001 244.34375L39.721886 246.04688L39.01876 246.5L42.30001 248.67188L42.30001 250.375ZM45.67501 240.51562L45.67501 241.53125Q41.909386 239.1875 38.159386 239.1875Q36.690636 239.1875 35.23751 239.53125Q34.065636 239.79688 32.98751 240.26562Q32.284386 240.57812 30.643763 241.53125L30.643763 240.51562Q32.61251 239.04688 34.58126 238.34375Q36.284386 237.75 38.14376 237.75Q40.253136 237.75 42.23751 238.5625Q44.20626 239.35938 45.67501 240.51562Z" fill-rule="nonzero"/><path fill="#000000" d="M88.97188 448.54376Q88.97188 446.5125 89.37813 445.27814Q89.8 444.04376 90.62813 443.3719Q91.45625 442.7 92.70625 442.7Q93.62813 442.7 94.31563 443.075Q95.01875 443.4344 95.47188 444.1375Q95.925 444.84064 96.175 445.84064Q96.44063 446.84064 96.44063 448.54376Q96.44063 450.5594 96.01875 451.8094Q95.6125 453.04376 94.78438 453.73126Q93.95625 454.40314 92.70625 454.40314Q91.05 454.40314 90.09688 453.2Q88.97188 451.77814 88.97188 448.54376ZM90.40938 448.54376Q90.40938 451.3719 91.06563 452.3094Q91.7375 453.23126 92.70625 453.23126Q93.675 453.23126 94.33125 452.29376Q94.9875 451.35626 94.9875 448.54376Q94.9875 445.71564 94.33125 444.79376Q93.675 443.85626 92.69063 443.85626Q91.72188 443.85626 91.14375 444.6844Q90.40938 445.73126 90.40938 448.54376Z" fill-rule="nonzero"/><path fill="#000000" d="M87.3625 401.35312L87.3625 402.7125L79.78438 402.7125Q79.76875 402.19687 79.95625 401.72812Q80.2375 400.9625 80.87813 400.2125Q81.51875 399.4625 82.72188 398.47812Q84.58125 396.94687 85.2375 396.05624Q85.89375 395.15 85.89375 394.35312Q85.89375 393.525 85.3 392.94687Q84.70625 392.36874 83.7375 392.36874Q82.72188 392.36874 82.1125 392.97812Q81.50313 393.5875 81.50313 394.66562L80.05 394.525Q80.20625 392.9 81.175 392.05624Q82.14375 391.2125 83.76875 391.2125Q85.425 391.2125 86.37813 392.13437Q87.34688 393.04062 87.34688 394.38437Q87.34688 395.07187 87.06563 395.74374Q86.78438 396.4 86.12813 397.13437Q85.47188 397.86874 83.95625 399.15Q82.69063 400.2125 82.33125 400.60312Q81.97188 400.97812 81.7375 401.35312L87.3625 401.35312ZM88.97188 397.05624Q88.97188 395.025 89.37813 393.79062Q89.8 392.55624 90.62813 391.88437Q91.45625 391.2125 92.70625 391.2125Q93.62813 391.2125 94.31563 391.5875Q95.01875 391.94687 95.47188 392.65Q95.925 393.35312 96.175 394.35312Q96.44063 395.35312 96.44063 397.05624Q96.44063 399.07187 96.01875 400.32187Q95.6125 401.55624 94.78438 402.24374Q93.95625 402.91562 92.70625 402.91562Q91.05 402.91562 90.09688 401.7125Q88.97188 400.29062 88.97188 397.05624ZM90.40938 397.05624Q90.40938 399.88437 91.06563 400.82187Q91.7375 401.74374 92.70625 401.74374Q93.675 401.74374 94.33125 400.80624Q94.9875 399.86874 94.9875 397.05624Q94.9875 394.22812 94.33125 393.30624Q93.675 392.36874 92.69063 392.36874Q91.72188 392.36874 91.14375 393.19687Q90.40938 394.24374 90.40938 397.05624Z" fill-rule="nonzero"/><path fill="#000000" d="M84.47188 351.225L84.47188 348.475L79.50313 348.475L79.50313 347.19376L84.7375 339.77188L85.87813 339.77188L85.87813 347.19376L87.425 347.19376L87.425 348.475L85.87813 348.475L85.87813 351.225L84.47188 351.225ZM84.47188 347.19376L84.47188 342.02188L80.89375 347.19376L84.47188 347.19376ZM88.97188 345.56876Q88.97188 343.5375 89.37813 342.30313Q89.8 341.06876 90.62813 340.39688Q91.45625 339.725 92.70625 339.725Q93.62813 339.725 94.31563 340.1Q95.01875 340.45938 95.47188 341.1625Q95.925 341.86563 96.175 342.86563Q96.44063 343.86563 96.44063 345.56876Q96.44063 347.58438 96.01875 348.83438Q95.6125 350.06876 94.78438 350.75626Q93.95625 351.42813 92.70625 351.42813Q91.05 351.42813 90.09688 350.225Q88.97188 348.80313 88.97188 345.56876ZM90.40938 345.56876Q90.40938 348.39688 91.06563 349.33438Q91.7375 350.25626 92.70625 350.25626Q93.675 350.25626 94.33125 349.31876Q94.9875 348.38126 94.9875 345.56876Q94.9875 342.74063 94.33125 341.81876Q93.675 340.88126 92.69063 340.88126Q91.72188 340.88126 91.14375 341.70938Q90.40938 342.75626 90.40938 345.56876Z" fill-rule="nonzero"/><path fill="#000000" d="M87.26875 291.08124L85.8625 291.1906Q85.675 290.3625 85.33125 289.9875Q84.76875 289.39374 83.925 289.39374Q83.25313 289.39374 82.75313 289.76874Q82.08125 290.2531 81.69063 291.1906Q81.31563 292.1125 81.3 293.83124Q81.81563 293.05 82.55 292.675Q83.28438 292.3 84.08125 292.3Q85.4875 292.3 86.47188 293.34686Q87.47188 294.3781 87.47188 296.01874Q87.47188 297.09686 87.00313 298.01874Q86.53438 298.9406 85.72188 299.4406Q84.90938 299.9406 83.87813 299.9406Q82.12813 299.9406 81.01875 298.64374Q79.90938 297.34686 79.90938 294.3781Q79.90938 291.05 81.12813 289.55Q82.20625 288.2375 84.01875 288.2375Q85.3625 288.2375 86.22188 289.0031Q87.09688 289.7531 87.26875 291.08124ZM81.51875 296.01874Q81.51875 296.7531 81.83125 297.425Q82.14375 298.08124 82.69063 298.425Q83.25313 298.76874 83.8625 298.76874Q84.75313 298.76874 85.39375 298.05Q86.03438 297.33124 86.03438 296.09686Q86.03438 294.90936 85.39375 294.2375Q84.76875 293.55 83.8 293.55Q82.84688 293.55 82.175 294.2375Q81.51875 294.90936 81.51875 296.01874ZM88.97188 294.08124Q88.97188 292.05 89.37813 290.8156Q89.8 289.58124 90.62813 288.90936Q91.45625 288.2375 92.70625 288.2375Q93.62813 288.2375 94.31563 288.6125Q95.01875 288.97186 95.47188 289.675Q95.925 290.3781 96.175 291.3781Q96.44063 292.3781 96.44063 294.08124Q96.44063 296.09686 96.01875 297.34686Q95.6125 298.58124 94.78438 299.26874Q93.95625 299.9406 92.70625 299.9406Q91.05 299.9406 90.09688 298.7375Q88.97188 297.3156 88.97188 294.08124ZM90.40938 294.08124Q90.40938 296.90936 91.06563 297.84686Q91.7375 298.76874 92.70625 298.76874Q93.675 298.76874 94.33125 297.83124Q94.9875 296.89374 94.9875 294.08124Q94.9875 291.2531 94.33125 290.33124Q93.675 289.39374 92.69063 289.39374Q91.72188 289.39374 91.14375 290.22186Q90.40938 291.26874 90.40938 294.08124Z" fill-rule="nonzero"/><path fill="#000000" d="M82.12813 242.03125Q81.25313 241.71875 80.83125 241.125Q80.40938 240.53125 80.40938 239.70312Q80.40938 238.45312 81.3 237.60938Q82.20625 236.75 83.70625 236.75Q85.20625 236.75 86.1125 237.625Q87.03438 238.48438 87.03438 239.73438Q87.03438 240.53125 86.6125 241.125Q86.19063 241.71875 85.34688 242.03125Q86.39375 242.375 86.94063 243.14062Q87.50313 243.90625 87.50313 244.96875Q87.50313 246.4375 86.45625 247.45312Q85.425 248.45312 83.72188 248.45312Q82.03438 248.45312 80.9875 247.45312Q79.95625 246.4375 79.95625 244.9375Q79.95625 243.8125 80.51875 243.0625Q81.08125 242.3125 82.12813 242.03125ZM81.84688 239.65625Q81.84688 240.46875 82.3625 240.98438Q82.89375 241.5 83.7375 241.5Q84.55 241.5 85.06563 240.98438Q85.58125 240.46875 85.58125 239.73438Q85.58125 238.95312 85.05 238.4375Q84.51875 237.90625 83.72188 237.90625Q82.90938 237.90625 82.37813 238.42188Q81.84688 238.9375 81.84688 239.65625ZM81.39375 244.9375Q81.39375 245.54688 81.675 246.10938Q81.97188 246.67188 82.53438 246.98438Q83.09688 247.28125 83.7375 247.28125Q84.75313 247.28125 85.40938 246.64062Q86.06563 245.98438 86.06563 244.98438Q86.06563 243.96875 85.37813 243.3125Q84.70625 242.64062 83.69063 242.64062Q82.70625 242.64062 82.05 243.29688Q81.39375 243.95312 81.39375 244.9375ZM88.97188 242.59375Q88.97188 240.5625 89.37813 239.32812Q89.8 238.09375 90.62813 237.42188Q91.45625 236.75 92.70625 236.75Q93.62813 236.75 94.31563 237.125Q95.01875 237.48438 95.47188 238.1875Q95.925 238.89062 96.175 239.89062Q96.44063 240.89062 96.44063 242.59375Q96.44063 244.60938 96.01875 245.85938Q95.6125 247.09375 94.78438 247.78125Q93.95625 248.45312 92.70625 248.45312Q91.05 248.45312 90.09688 247.25Q88.97188 245.82812 88.97188 242.59375ZM90.40938 242.59375Q90.40938 245.42188 91.06563 246.35938Q91.7375 247.28125 92.70625 247.28125Q93.675 247.28125 94.33125 246.34375Q94.9875 245.40625 94.9875 242.59375Q94.9875 239.76562 94.33125 238.84375Q93.675 237.90625 92.69063 237.90625Q91.72188 237.90625 91.14375 238.73438Q90.40938 239.78125 90.40938 242.59375Z" fill-rule="nonzero"/><path fill="#000000" d="M76.26875 196.7625L74.8625 196.7625L74.8625 187.79375Q74.34688 188.27812 73.51875 188.7625Q72.70625 189.24687 72.05 189.49687L72.05 188.1375Q73.22188 187.575 74.09688 186.79375Q74.9875 185.99687 75.3625 185.2625L76.26875 185.2625L76.26875 196.7625ZM79.97188 191.10625Q79.97188 189.075 80.37813 187.84062Q80.8 186.60625 81.62813 185.93437Q82.45625 185.2625 83.70625 185.2625Q84.62813 185.2625 85.31563 185.6375Q86.01875 185.99687 86.47188 186.7Q86.925 187.40312 87.175 188.40312Q87.44063 189.40312 87.44063 191.10625Q87.44063 193.12187 87.01875 194.37187Q86.6125 195.60625 85.78438 196.29375Q84.95625 196.96562 83.70625 196.96562Q82.05 196.96562 81.09688 195.7625Q79.97188 194.34062 79.97188 191.10625ZM81.40938 191.10625Q81.40938 193.93437 82.06563 194.87187Q82.7375 195.79375 83.70625 195.79375Q84.675 195.79375 85.33125 194.85625Q85.9875 193.91875 85.9875 191.10625Q85.9875 188.27812 85.33125 187.35625Q84.675 186.41875 83.69063 186.41875Q82.72188 186.41875 82.14375 187.24687Q81.40938 188.29375 81.40938 191.10625ZM88.97188 191.10625Q88.97188 189.075 89.37813 187.84062Q89.8 186.60625 90.62813 185.93437Q91.45625 185.2625 92.70625 185.2625Q93.62813 185.2625 94.31563 185.6375Q95.01875 185.99687 95.47188 186.7Q95.925 187.40312 96.175 188.40312Q96.44063 189.40312 96.44063 191.10625Q96.44063 193.12187 96.01875 194.37187Q95.6125 195.60625 94.78438 196.29375Q93.95625 196.96562 92.70625 196.96562Q91.05 196.96562 90.09688 195.7625Q88.97188 194.34062 88.97188 191.10625ZM90.40938 191.10625Q90.40938 193.93437 91.06563 194.87187Q91.7375 195.79375 92.70625 195.79375Q93.675 195.79375 94.33125 194.85625Q94.9875 193.91875 94.9875 191.10625Q94.9875 188.27812 94.33125 187.35625Q93.675 186.41875 92.69063 186.41875Q91.72188 186.41875 91.14375 187.24687Q90.40938 188.29375 90.40938 191.10625Z" fill-rule="nonzero"/><path fill="#000000" d="M76.26875 145.275L74.8625 145.275L74.8625 136.30624Q74.34688 136.79062 73.51875 137.275Q72.70625 137.75937 72.05 138.00937L72.05 136.65Q73.22188 136.0875 74.09688 135.30624Q74.9875 134.50937 75.3625 133.775L76.26875 133.775L76.26875 145.275ZM87.3625 143.91562L87.3625 145.275L79.78438 145.275Q79.76875 144.75937 79.95625 144.29062Q80.2375 143.525 80.87813 142.775Q81.51875 142.025 82.72188 141.04062Q84.58125 139.50937 85.2375 138.61874Q85.89375 137.7125 85.89375 136.91562Q85.89375 136.0875 85.3 135.50937Q84.70625 134.93124 83.7375 134.93124Q82.72188 134.93124 82.1125 135.54062Q81.50313 136.15 81.50313 137.22812L80.05 137.0875Q80.20625 135.4625 81.175 134.61874Q82.14375 133.775 83.76875 133.775Q85.425 133.775 86.37813 134.69687Q87.34688 135.60312 87.34688 136.94687Q87.34688 137.63437 87.06563 138.30624Q86.78438 138.9625 86.12813 139.69687Q85.47188 140.43124 83.95625 141.7125Q82.69063 142.775 82.33125 143.16562Q81.97188 143.54062 81.7375 143.91562L87.3625 143.91562ZM88.97188 139.61874Q88.97188 137.5875 89.37813 136.35312Q89.8 135.11874 90.62813 134.44687Q91.45625 133.775 92.70625 133.775Q93.62813 133.775 94.31563 134.15Q95.01875 134.50937 95.47188 135.2125Q95.925 135.91562 96.175 136.91562Q96.44063 137.91562 96.44063 139.61874Q96.44063 141.63437 96.01875 142.88437Q95.6125 144.11874 94.78438 144.80624Q93.95625 145.47812 92.70625 145.47812Q91.05 145.47812 90.09688 144.275Q88.97188 142.85312 88.97188 139.61874ZM90.40938 139.61874Q90.40938 142.44687 91.06563 143.38437Q91.7375 144.30624 92.70625 144.30624Q93.675 144.30624 94.33125 143.36874Q94.9875 142.43124 94.9875 139.61874Q94.9875 136.79062 94.33125 135.86874Q93.675 134.93124 92.69063 134.93124Q91.72188 134.93124 91.14375 135.75937Q90.40938 136.80624 90.40938 139.61874Z" fill-rule="nonzero"/><path fill="#000000" d="M76.26875 93.7875L74.8625 93.7875L74.8625 84.81875Q74.34688 85.30312 73.51875 85.7875Q72.70625 86.27187 72.05 86.52187L72.05 85.1625Q73.22188 84.6 74.09688 83.81875Q74.9875 83.02187 75.3625 82.2875L76.26875 82.2875L76.26875 93.7875ZM84.47188 93.7875L84.47188 91.0375L79.50313 91.0375L79.50313 89.75625L84.7375 82.33437L85.87813 82.33437L85.87813 89.75625L87.425 89.75625L87.425 91.0375L85.87813 91.0375L85.87813 93.7875L84.47188 93.7875ZM84.47188 89.75625L84.47188 84.58437L80.89375 89.75625L84.47188 89.75625ZM88.97188 88.13125Q88.97188 86.1 89.37813 84.86562Q89.8 83.63125 90.62813 82.95937Q91.45625 82.2875 92.70625 82.2875Q93.62813 82.2875 94.31563 82.6625Q95.01875 83.02187 95.47188 83.725Q95.925 84.42812 96.175 85.42812Q96.44063 86.42812 96.44063 88.13125Q96.44063 90.14687 96.01875 91.39687Q95.6125 92.63125 94.78438 93.31875Q93.95625 93.99062 92.70625 93.99062Q91.05 93.99062 90.09688 92.7875Q88.97188 91.36562 88.97188 88.13125ZM90.40938 88.13125Q90.40938 90.95937 91.06563 91.89687Q91.7375 92.81875 92.70625 92.81875Q93.675 92.81875 94.33125 91.88125Q94.9875 90.94375 94.9875 88.13125Q94.9875 85.30312 94.33125 84.38125Q93.675 83.44375 92.69063 83.44375Q91.72188 83.44375 91.14375 84.27187Q90.40938 85.31875 90.40938 88.13125Z" fill-rule="nonzero"/><path fill="#000000" d="M76.26875 42.3L74.8625 42.3L74.8625 33.33125Q74.34688 33.815624 73.51875 34.3Q72.70625 34.784374 72.05 35.034374L72.05 33.675Q73.22188 33.1125 74.09688 32.33125Q74.9875 31.534374 75.3625 30.8L76.26875 30.8L76.26875 42.3ZM87.26875 33.64375L85.8625 33.753124Q85.675 32.925 85.33125 32.55Q84.76875 31.95625 83.925 31.95625Q83.25313 31.95625 82.75313 32.33125Q82.08125 32.815624 81.69063 33.753124Q81.31563 34.675 81.3 36.39375Q81.81563 35.6125 82.55 35.2375Q83.28438 34.8625 84.08125 34.8625Q85.4875 34.8625 86.47188 35.909374Q87.47188 36.940624 87.47188 38.58125Q87.47188 39.659374 87.00313 40.58125Q86.53438 41.503124 85.72188 42.003124Q84.90938 42.503124 83.87813 42.503124Q82.12813 42.503124 81.01875 41.20625Q79.90938 39.909374 79.90938 36.940624Q79.90938 33.6125 81.12813 32.1125Q82.20625 30.8 84.01875 30.8Q85.3625 30.8 86.22188 31.565624Q87.09688 32.315624 87.26875 33.64375ZM81.51875 38.58125Q81.51875 39.315624 81.83125 39.9875Q82.14375 40.64375 82.69063 40.9875Q83.25313 41.33125 83.8625 41.33125Q84.75313 41.33125 85.39375 40.6125Q86.03438 39.89375 86.03438 38.659374Q86.03438 37.471874 85.39375 36.8Q84.76875 36.1125 83.8 36.1125Q82.84688 36.1125 82.175 36.8Q81.51875 37.471874 81.51875 38.58125ZM88.97188 36.64375Q88.97188 34.6125 89.37813 33.378124Q89.8 32.14375 90.62813 31.471874Q91.45625 30.8 92.70625 30.8Q93.62813 30.8 94.31563 31.175Q95.01875 31.534374 95.47188 32.2375Q95.925 32.940624 96.175 33.940624Q96.44063 34.940624 96.44063 36.64375Q96.44063 38.659374 96.01875 39.909374Q95.6125 41.14375 94.78438 41.83125Q93.95625 42.503124 92.70625 42.503124Q91.05 42.503124 90.09688 41.3Q88.97188 39.878124 88.97188 36.64375ZM90.40938 36.64375Q90.40938 39.471874 91.06563 40.409374Q91.7375 41.33125 92.70625 41.33125Q93.675 41.33125 94.33125 40.39375Q94.9875 39.45625 94.9875 36.64375Q94.9875 33.815624 94.33125 32.89375Q93.675 31.95625 92.69063 31.95625Q91.72188 31.95625 91.14375 32.784374Q90.40938 33.83125 90.40938 36.64375Z" fill-rule="nonzero"/><path fill="#000000" d="M122.42292 471.7L121.01667 471.7L121.01667 462.73126Q120.501045 463.21564 119.67292 463.7Q118.86042 464.1844 118.20417 464.4344L118.20417 463.075Q119.376045 462.5125 120.251045 461.73126Q121.14167 460.9344 121.51667 460.2L122.42292 460.2L122.42292 471.7Z" fill-rule="nonzero"/><path fill="#000000" d="M155.825 470.34064L155.825 471.7L148.24687 471.7Q148.23125 471.1844 148.41875 470.71564Q148.7 469.95 149.34062 469.2Q149.98125 468.45 151.18437 467.46564Q153.04375 465.9344 153.7 465.04376Q154.35625 464.1375 154.35625 463.34064Q154.35625 462.5125 153.7625 461.9344Q153.16875 461.35626 152.2 461.35626Q151.18437 461.35626 150.575 461.96564Q149.96562 462.575 149.96562 463.65314L148.5125 463.5125Q148.66875 461.8875 149.6375 461.04376Q150.60625 460.2 152.23125 460.2Q153.8875 460.2 154.84062 461.1219Q155.80937 462.02814 155.80937 463.3719Q155.80937 464.0594 155.52812 464.73126Q155.24687 465.3875 154.59062 466.1219Q153.93437 466.85626 152.41875 468.1375Q151.15312 469.2 150.79375 469.59064Q150.43437 469.96564 150.2 470.34064L155.825 470.34064Z" fill-rule="nonzero"/><path fill="#000000" d="M179.7427 468.66876L181.14896 468.48126Q181.39896 469.6844 181.97708 470.21564Q182.5552 470.73126 183.39896 470.73126Q184.38333 470.73126 185.07083 470.04376Q185.75833 469.35626 185.75833 468.34064Q185.75833 467.3719 185.1177 466.7469Q184.4927 466.1219 183.50833 466.1219Q183.1177 466.1219 182.52396 466.27814L182.6802 465.04376Q182.82083 465.0594 182.89896 465.0594Q183.8052 465.0594 184.52396 464.59064Q185.2427 464.1219 185.2427 463.1375Q185.2427 462.3719 184.71146 461.8719Q184.19583 461.35626 183.3677 461.35626Q182.53958 461.35626 181.9927 461.8719Q181.44583 462.3875 181.28958 463.41876L179.88333 463.16876Q180.14896 461.7469 181.0552 460.98126Q181.97708 460.2 183.33646 460.2Q184.27396 460.2 185.0552 460.60626Q185.85208 460.9969 186.25833 461.7Q186.6802 462.3875 186.6802 463.16876Q186.6802 463.91876 186.27396 464.52814Q185.88333 465.1375 185.10208 465.4969Q186.1177 465.73126 186.6802 466.46564Q187.2427 467.2 187.2427 468.3094Q187.2427 469.8094 186.14896 470.85626Q185.0552 471.90314 183.38333 471.90314Q181.88333 471.90314 180.88333 471.0125Q179.88333 470.10626 179.7427 468.66876Z" fill-rule="nonzero"/><path fill="#000000" d="M215.55104 471.7L215.55104 468.95L210.58229 468.95L210.58229 467.66876L215.81667 460.2469L216.95729 460.2469L216.95729 467.66876L218.50417 467.66876L218.50417 468.95L216.95729 468.95L216.95729 471.7L215.55104 471.7ZM215.55104 467.66876L215.55104 462.4969L211.97292 467.66876L215.55104 467.66876Z" fill-rule="nonzero"/><path fill="#000000" d="M242.35938 468.7L243.82812 468.575Q244.0 469.65314 244.59375 470.2Q245.1875 470.73126 246.03125 470.73126Q247.04688 470.73126 247.75 469.96564Q248.45312 469.2 248.45312 467.9344Q248.45312 466.73126 247.78125 466.04376Q247.10938 465.34064 246.01562 465.34064Q245.32812 465.34064 244.78125 465.65314Q244.23438 465.96564 243.92188 466.45L242.60938 466.27814L243.71875 460.40314L249.40625 460.40314L249.40625 461.7469L244.84375 461.7469L244.21875 464.825Q245.25 464.10626 246.39062 464.10626Q247.89062 464.10626 248.92188 465.15314Q249.95312 466.1844 249.95312 467.8094Q249.95312 469.3719 249.04688 470.4969Q247.9375 471.90314 246.03125 471.90314Q244.46875 471.90314 243.48438 471.02814Q242.5 470.1375 242.35938 468.7Z" fill-rule="nonzero"/><path fill="#000000" d="M280.96457 463.04376L279.55832 463.15314Q279.37082 462.325 279.02707 461.95Q278.46457 461.35626 277.62082 461.35626Q276.94894 461.35626 276.44894 461.73126Q275.77707 462.21564 275.38644 463.15314Q275.01144 464.075 274.99582 465.79376Q275.51144 465.0125 276.24582 464.6375Q276.9802 464.2625 277.77707 464.2625Q279.18332 464.2625 280.1677 465.3094Q281.1677 466.34064 281.1677 467.98126Q281.1677 469.0594 280.69894 469.98126Q280.2302 470.90314 279.4177 471.40314Q278.6052 471.90314 277.57394 471.90314Q275.82394 471.90314 274.71457 470.60626Q273.6052 469.3094 273.6052 466.34064Q273.6052 463.0125 274.82394 461.5125Q275.90207 460.2 277.71457 460.2Q279.05832 460.2 279.9177 460.96564Q280.7927 461.71564 280.96457 463.04376ZM275.21457 467.98126Q275.21457 468.71564 275.52707 469.3875Q275.83957 470.04376 276.38644 470.3875Q276.94894 470.73126 277.55832 470.73126Q278.44894 470.73126 279.08957 470.0125Q279.7302 469.29376 279.7302 468.0594Q279.7302 466.8719 279.08957 466.2Q278.46457 465.5125 277.49582 465.5125Q276.5427 465.5125 275.87082 466.2Q275.21457 466.8719 275.21457 467.98126Z" fill-rule="nonzero"/><path fill="#000000" d="M305.0698 461.7469L305.0698 460.3875L312.47604 460.3875L312.47604 461.48126Q311.3823 462.65314 310.30417 464.59064Q309.24167 466.5125 308.64792 468.54376Q308.22604 469.98126 308.11667 471.7L306.66354 471.7Q306.6948 470.34064 307.1948 468.4344Q307.71042 466.5125 308.64792 464.7469Q309.60104 462.96564 310.67917 461.7469L305.0698 461.7469Z" fill-rule="nonzero"/><path fill="#000000" d="M338.4406 465.48126Q337.5656 465.16876 337.14374 464.575Q336.72186 463.98126 336.72186 463.15314Q336.72186 461.90314 337.6125 461.0594Q338.51874 460.2 340.01874 460.2Q341.51874 460.2 342.425 461.075Q343.34686 461.9344 343.34686 463.1844Q343.34686 463.98126 342.925 464.575Q342.5031 465.16876 341.65936 465.48126Q342.70624 465.825 343.2531 466.59064Q343.8156 467.35626 343.8156 468.41876Q343.8156 469.8875 342.76874 470.90314Q341.7375 471.90314 340.03436 471.90314Q338.34686 471.90314 337.3 470.90314Q336.26874 469.8875 336.26874 468.3875Q336.26874 467.2625 336.83124 466.5125Q337.39374 465.7625 338.4406 465.48126ZM338.15936 463.10626Q338.15936 463.91876 338.675 464.4344Q339.20624 464.95 340.05 464.95Q340.8625 464.95 341.3781 464.4344Q341.89374 463.91876 341.89374 463.1844Q341.89374 462.40314 341.3625 461.8875Q340.83124 461.35626 340.03436 461.35626Q339.22186 461.35626 338.6906 461.8719Q338.15936 462.3875 338.15936 463.10626ZM337.70624 468.3875Q337.70624 468.9969 337.9875 469.5594Q338.28436 470.1219 338.84686 470.4344Q339.40936 470.73126 340.05 470.73126Q341.0656 470.73126 341.72186 470.09064Q342.3781 469.4344 342.3781 468.4344Q342.3781 467.41876 341.6906 466.7625Q341.01874 466.09064 340.0031 466.09064Q339.01874 466.09064 338.3625 466.7469Q337.70624 467.40314 337.70624 468.3875Z" fill-rule="nonzero"/><path fill="#000000" d="M367.79584 469.04376L369.1552 468.91876Q369.3271 469.8719 369.81146 470.3094Q370.29584 470.73126 371.04584 470.73126Q371.7021 470.73126 372.18646 470.4344Q372.67084 470.1375 372.98334 469.65314Q373.29584 469.15314 373.49896 468.3094Q373.7177 467.46564 373.7177 466.59064Q373.7177 466.4969 373.7177 466.3094Q373.29584 466.98126 372.56146 467.40314Q371.8271 467.8094 370.98334 467.8094Q369.56146 467.8094 368.5771 466.77814Q367.5927 465.7469 367.5927 464.0594Q367.5927 462.325 368.60834 461.2625Q369.6396 460.2 371.18646 460.2Q372.31146 460.2 373.23334 460.8094Q374.1552 461.40314 374.6396 462.5125Q375.12396 463.6219 375.12396 465.73126Q375.12396 467.9344 374.6396 469.23126Q374.17084 470.52814 373.2177 471.21564Q372.2802 471.90314 371.0146 471.90314Q369.67084 471.90314 368.81146 471.15314Q367.9677 470.40314 367.79584 469.04376ZM373.56146 463.9969Q373.56146 462.77814 372.9052 462.075Q372.2646 461.35626 371.35834 461.35626Q370.42084 461.35626 369.7177 462.1219Q369.0302 462.8875 369.0302 464.10626Q369.0302 465.2 369.68646 465.8875Q370.35834 466.575 371.3271 466.575Q372.29584 466.575 372.92084 465.8875Q373.56146 465.2 373.56146 463.9969Z" fill-rule="nonzero"/><path fill="#000000" d="M399.6979 471.7L398.29166 471.7L398.29166 462.73126Q397.77603 463.21564 396.9479 463.7Q396.1354 464.1844 395.47916 464.4344L395.47916 463.075Q396.65103 462.5125 397.52603 461.73126Q398.41666 460.9344 398.79166 460.2L399.6979 460.2L399.6979 471.7ZM403.40103 466.04376Q403.40103 464.0125 403.80728 462.77814Q404.22916 461.54376 405.05728 460.8719Q405.8854 460.2 407.1354 460.2Q408.05728 460.2 408.74478 460.575Q409.4479 460.9344 409.90103 461.6375Q410.35416 462.34064 410.60416 463.34064Q410.86978 464.34064 410.86978 466.04376Q410.86978 468.0594 410.4479 469.3094Q410.04166 470.54376 409.21353 471.23126Q408.3854 471.90314 407.1354 471.90314Q405.47916 471.90314 404.52603 470.7Q403.40103 469.27814 403.40103 466.04376ZM404.83853 466.04376Q404.83853 468.8719 405.49478 469.8094Q406.16666 470.73126 407.1354 470.73126Q408.10416 470.73126 408.7604 469.79376Q409.41666 468.85626 409.41666 466.04376Q409.41666 463.21564 408.7604 462.29376Q408.10416 461.35626 407.11978 461.35626Q406.15103 461.35626 405.5729 462.1844Q404.83853 463.23126 404.83853 466.04376Z" fill-rule="nonzero"/><path fill="#000000" d="M431.00626 471.7L429.6 471.7L429.6 462.73126Q429.08438 463.21564 428.25626 463.7Q427.44376 464.1844 426.7875 464.4344L426.7875 463.075Q427.95938 462.5125 428.83438 461.73126Q429.725 460.9344 430.1 460.2L431.00626 460.2L431.00626 471.7ZM440.00626 471.7L438.6 471.7L438.6 462.73126Q438.08438 463.21564 437.25626 463.7Q436.44376 464.1844 435.7875 464.4344L435.7875 463.075Q436.95938 462.5125 437.83438 461.73126Q438.725 460.9344 439.1 460.2L440.00626 460.2L440.00626 471.7Z" fill-rule="nonzero"/><path fill="#000000" d="M462.31458 471.7L460.90833 471.7L460.90833 462.73126Q460.3927 463.21564 459.56458 463.7Q458.75208 464.1844 458.09583 464.4344L458.09583 463.075Q459.2677 462.5125 460.1427 461.73126Q461.03333 460.9344 461.40833 460.2L462.31458 460.2L462.31458 471.7ZM473.40833 470.34064L473.40833 471.7L465.8302 471.7Q465.81458 471.1844 466.00208 470.71564Q466.28333 469.95 466.92395 469.2Q467.56458 468.45 468.7677 467.46564Q470.62708 465.9344 471.28333 465.04376Q471.93958 464.1375 471.93958 463.34064Q471.93958 462.5125 471.34583 461.9344Q470.75208 461.35626 469.78333 461.35626Q468.7677 461.35626 468.15833 461.96564Q467.54895 462.575 467.54895 463.65314L466.09583 463.5125Q466.25208 461.8875 467.22083 461.04376Q468.18958 460.2 469.81458 460.2Q471.47083 460.2 472.42395 461.1219Q473.3927 462.02814 473.3927 463.3719Q473.3927 464.0594 473.11145 464.73126Q472.8302 465.3875 472.17395 466.1219Q471.5177 466.85626 470.00208 468.1375Q468.73645 469.2 468.37708 469.59064Q468.0177 469.96564 467.78333 470.34064L473.40833 470.34064Z" fill-rule="nonzero"/><path fill="#000000" d="M493.62292 471.7L492.21667 471.7L492.21667 462.73126Q491.70105 463.21564 490.87292 463.7Q490.06042 464.1844 489.40417 464.4344L489.40417 463.075Q490.57605 462.5125 491.45105 461.73126Q492.34167 460.9344 492.71667 460.2L493.62292 460.2L493.62292 471.7ZM497.32605 468.66876L498.7323 468.48126Q498.9823 469.6844 499.56042 470.21564Q500.13855 470.73126 500.9823 470.73126Q501.96667 470.73126 502.65417 470.04376Q503.34167 469.35626 503.34167 468.34064Q503.34167 467.3719 502.70105 466.7469Q502.07605 466.1219 501.09167 466.1219Q500.70105 466.1219 500.1073 466.27814L500.26355 465.04376Q500.40417 465.0594 500.4823 465.0594Q501.38855 465.0594 502.1073 464.59064Q502.82605 464.1219 502.82605 463.1375Q502.82605 462.3719 502.2948 461.8719Q501.77917 461.35626 500.95105 461.35626Q500.12292 461.35626 499.57605 461.8719Q499.02917 462.3875 498.87292 463.41876L497.46667 463.16876Q497.7323 461.7469 498.63855 460.98126Q499.56042 460.2 500.9198 460.2Q501.8573 460.2 502.63855 460.60626Q503.43542 460.9969 503.84167 461.7Q504.26355 462.3875 504.26355 463.16876Q504.26355 463.91876 503.8573 464.52814Q503.46667 465.1375 502.68542 465.4969Q503.70105 465.73126 504.26355 466.46564Q504.82605 467.2 504.82605 468.3094Q504.82605 469.8094 503.7323 470.85626Q502.63855 471.90314 500.96667 471.90314Q499.46667 471.90314 498.46667 471.0125Q497.46667 470.10626 497.32605 468.66876Z" fill-rule="nonzero"/><path fill="#000000" d="M524.9313 471.7L523.525 471.7L523.525 462.73126Q523.0094 463.21564 522.1813 463.7Q521.3688 464.1844 520.7125 464.4344L520.7125 463.075Q521.8844 462.5125 522.7594 461.73126Q523.65 460.9344 524.025 460.2L524.9313 460.2L524.9313 471.7ZM533.1344 471.7L533.1344 468.95L528.16565 468.95L528.16565 467.66876L533.4 460.2469L534.54065 460.2469L534.54065 467.66876L536.0875 467.66876L536.0875 468.95L534.54065 468.95L534.54065 471.7L533.1344 471.7ZM533.1344 467.66876L533.1344 462.4969L529.5563 467.66876L533.1344 467.66876Z" fill-rule="nonzero"/><path fill="#000000" d="M556.23956 471.7L554.8333 471.7L554.8333 462.73126Q554.3177 463.21564 553.48956 463.7Q552.67706 464.1844 552.0208 464.4344L552.0208 463.075Q553.1927 462.5125 554.0677 461.73126Q554.9583 460.9344 555.3333 460.2L556.23956 460.2L556.23956 471.7ZM559.9427 468.7L561.41144 468.575Q561.5833 469.65314 562.17706 470.2Q562.7708 470.73126 563.61456 470.73126Q564.6302 470.73126 565.3333 469.96564Q566.03644 469.2 566.03644 467.9344Q566.03644 466.73126 565.36456 466.04376Q564.6927 465.34064 563.59894 465.34064Q562.91144 465.34064 562.36456 465.65314Q561.8177 465.96564 561.5052 466.45L560.1927 466.27814L561.30206 460.40314L566.98956 460.40314L566.98956 461.7469L562.42706 461.7469L561.80206 464.825Q562.8333 464.10626 563.97394 464.10626Q565.47394 464.10626 566.5052 465.15314Q567.53644 466.1844 567.53644 467.8094Q567.53644 469.3719 566.6302 470.4969Q565.5208 471.90314 563.61456 471.90314Q562.05206 471.90314 561.0677 471.02814Q560.0833 470.1375 559.9427 468.7Z" fill-rule="nonzero"/><path fill="#000000" d="M587.5479 471.7L586.14166 471.7L586.14166 462.73126Q585.62604 463.21564 584.7979 463.7Q583.9854 464.1844 583.32916 464.4344L583.32916 463.075Q584.50104 462.5125 585.37604 461.73126Q586.26666 460.9344 586.64166 460.2L587.5479 460.2L587.5479 471.7ZM598.5479 463.04376L597.14166 463.15314Q596.95416 462.325 596.6104 461.95Q596.0479 461.35626 595.20416 461.35626Q594.5323 461.35626 594.0323 461.73126Q593.3604 462.21564 592.9698 463.15314Q592.5948 464.075 592.57916 465.79376Q593.0948 465.0125 593.82916 464.6375Q594.56354 464.2625 595.3604 464.2625Q596.76666 464.2625 597.75104 465.3094Q598.75104 466.34064 598.75104 467.98126Q598.75104 469.0594 598.2823 469.98126Q597.81354 470.90314 597.00104 471.40314Q596.18854 471.90314 595.1573 471.90314Q593.4073 471.90314 592.2979 470.60626Q591.18854 469.3094 591.18854 466.34064Q591.18854 463.0125 592.4073 461.5125Q593.4854 460.2 595.2979 460.2Q596.64166 460.2 597.50104 460.96564Q598.37604 461.71564 598.5479 463.04376ZM592.7979 467.98126Q592.7979 468.71564 593.1104 469.3875Q593.4229 470.04376 593.9698 470.3875Q594.5323 470.73126 595.14166 470.73126Q596.0323 470.73126 596.6729 470.0125Q597.31354 469.29376 597.31354 468.0594Q597.31354 466.8719 596.6729 466.2Q596.0479 465.5125 595.07916 465.5125Q594.12604 465.5125 593.45416 466.2Q592.7979 466.8719 592.7979 467.98126Z" fill-rule="nonzero"/><path fill="#000000" d="M618.85626 471.7L617.45 471.7L617.45 462.73126Q616.9344 463.21564 616.10626 463.7Q615.29376 464.1844 614.6375 464.4344L614.6375 463.075Q615.8094 462.5125 616.6844 461.73126Q617.575 460.9344 617.95 460.2L618.85626 460.2L618.85626 471.7ZM622.65314 461.7469L622.65314 460.3875L630.0594 460.3875L630.0594 461.48126Q628.96564 462.65314 627.8875 464.59064Q626.825 466.5125 626.23126 468.54376Q625.8094 469.98126 625.7 471.7L624.2469 471.7Q624.27814 470.34064 624.77814 468.4344Q625.29376 466.5125 626.23126 464.7469Q627.1844 462.96564 628.2625 461.7469L622.65314 461.7469Z" fill-rule="nonzero"/><path fill="#000000" d="M650.1646 471.7L648.75836 471.7L648.75836 462.73126Q648.24274 463.21564 647.4146 463.7Q646.6021 464.1844 645.94586 464.4344L645.94586 463.075Q647.11774 462.5125 647.99274 461.73126Q648.88336 460.9344 649.25836 460.2L650.1646 460.2L650.1646 471.7ZM656.024 465.48126Q655.149 465.16876 654.7271 464.575Q654.30524 463.98126 654.30524 463.15314Q654.30524 461.90314 655.19586 461.0594Q656.1021 460.2 657.6021 460.2Q659.1021 460.2 660.00836 461.075Q660.93024 461.9344 660.93024 463.1844Q660.93024 463.98126 660.50836 464.575Q660.0865 465.16876 659.24274 465.48126Q660.2896 465.825 660.8365 466.59064Q661.399 467.35626 661.399 468.41876Q661.399 469.8875 660.3521 470.90314Q659.32086 471.90314 657.61774 471.90314Q655.93024 471.90314 654.88336 470.90314Q653.8521 469.8875 653.8521 468.3875Q653.8521 467.2625 654.4146 466.5125Q654.9771 465.7625 656.024 465.48126ZM655.74274 463.10626Q655.74274 463.91876 656.25836 464.4344Q656.7896 464.95 657.63336 464.95Q658.44586 464.95 658.9615 464.4344Q659.4771 463.91876 659.4771 463.1844Q659.4771 462.40314 658.94586 461.8875Q658.4146 461.35626 657.61774 461.35626Q656.80524 461.35626 656.274 461.8719Q655.74274 462.3875 655.74274 463.10626ZM655.2896 468.3875Q655.2896 468.9969 655.57086 469.5594Q655.86774 470.1219 656.43024 470.4344Q656.99274 470.73126 657.63336 470.73126Q658.649 470.73126 659.30524 470.09064Q659.9615 469.4344 659.9615 468.4344Q659.9615 467.41876 659.274 466.7625Q658.6021 466.09064 657.5865 466.09064Q656.6021 466.09064 655.94586 466.7469Q655.2896 467.40314 655.2896 468.3875Z" fill-rule="nonzero"/><path fill="#000000" d="M681.4729 471.7L680.06665 471.7L680.06665 462.73126Q679.551 463.21564 678.7229 463.7Q677.9104 464.1844 677.25415 464.4344L677.25415 463.075Q678.426 462.5125 679.301 461.73126Q680.19165 460.9344 680.56665 460.2L681.4729 460.2L681.4729 471.7ZM685.37915 469.04376L686.7385 468.91876Q686.9104 469.8719 687.3948 470.3094Q687.87915 470.73126 688.62915 470.73126Q689.2854 470.73126 689.7698 470.4344Q690.25415 470.1375 690.56665 469.65314Q690.87915 469.15314 691.0823 468.3094Q691.301 467.46564 691.301 466.59064Q691.301 466.4969 691.301 466.3094Q690.87915 466.98126 690.1448 467.40314Q689.4104 467.8094 688.56665 467.8094Q687.1448 467.8094 686.1604 466.77814Q685.176 465.7469 685.176 464.0594Q685.176 462.325 686.19165 461.2625Q687.2229 460.2 688.7698 460.2Q689.8948 460.2 690.81665 460.8094Q691.7385 461.40314 692.2229 462.5125Q692.7073 463.6219 692.7073 465.73126Q692.7073 467.9344 692.2229 469.23126Q691.75415 470.52814 690.801 471.21564Q689.8635 471.90314 688.5979 471.90314Q687.25415 471.90314 686.3948 471.15314Q685.551 470.40314 685.37915 469.04376ZM691.1448 463.9969Q691.1448 462.77814 690.4885 462.075Q689.8479 461.35626 688.94165 461.35626Q688.00415 461.35626 687.301 462.1219Q686.6135 462.8875 686.6135 464.10626Q686.6135 465.2 687.2698 465.8875Q687.94165 466.575 688.9104 466.575Q689.87915 466.575 690.50415 465.8875Q691.1448 465.2 691.1448 463.9969Z" fill-rule="nonzero"/><path fill="#000000" d="M714.875 470.34064L714.875 471.7L707.2969 471.7Q707.28125 471.1844 707.46875 470.71564Q707.75 469.95 708.3906 469.2Q709.03125 468.45 710.2344 467.46564Q712.09375 465.9344 712.75 465.04376Q713.40625 464.1375 713.40625 463.34064Q713.40625 462.5125 712.8125 461.9344Q712.21875 461.35626 711.25 461.35626Q710.2344 461.35626 709.625 461.96564Q709.0156 462.575 709.0156 463.65314L707.5625 463.5125Q707.71875 461.8875 708.6875 461.04376Q709.65625 460.2 711.28125 460.2Q712.9375 460.2 713.8906 461.1219Q714.8594 462.02814 714.8594 463.3719Q714.8594 464.0594 714.5781 464.73126Q714.2969 465.3875 713.6406 466.1219Q712.9844 466.85626 711.46875 468.1375Q710.2031 469.2 709.84375 469.59064Q709.4844 469.96564 709.25 470.34064L714.875 470.34064ZM716.4844 466.04376Q716.4844 464.0125 716.8906 462.77814Q717.3125 461.54376 718.1406 460.8719Q718.96875 460.2 720.21875 460.2Q721.1406 460.2 721.8281 460.575Q722.53125 460.9344 722.9844 461.6375Q723.4375 462.34064 723.6875 463.34064Q723.9531 464.34064 723.9531 466.04376Q723.9531 468.0594 723.53125 469.3094Q723.125 470.54376 722.2969 471.23126Q721.46875 471.90314 720.21875 471.90314Q718.5625 471.90314 717.6094 470.7Q716.4844 469.27814 716.4844 466.04376ZM717.9219 466.04376Q717.9219 468.8719 718.5781 469.8094Q719.25 470.73126 720.21875 470.73126Q721.1875 470.73126 721.84375 469.79376Q722.5 468.85626 722.5 466.04376Q722.5 463.21564 721.84375 462.29376Q721.1875 461.35626 720.2031 461.35626Q719.2344 461.35626 718.65625 462.1844Q717.9219 463.23126 717.9219 466.04376Z" fill-rule="nonzero"/><path fill="#000000" d="M746.18335 470.34064L746.18335 471.7L738.6052 471.7Q738.5896 471.1844 738.7771 470.71564Q739.05835 469.95 739.699 469.2Q740.3396 468.45 741.5427 467.46564Q743.4021 465.9344 744.05835 465.04376Q744.7146 464.1375 744.7146 463.34064Q744.7146 462.5125 744.12085 461.9344Q743.5271 461.35626 742.55835 461.35626Q741.5427 461.35626 740.93335 461.96564Q740.324 462.575 740.324 463.65314L738.87085 463.5125Q739.0271 461.8875 739.99585 461.04376Q740.9646 460.2 742.5896 460.2Q744.24585 460.2 745.199 461.1219Q746.1677 462.02814 746.1677 463.3719Q746.1677 464.0594 745.8865 464.73126Q745.6052 465.3875 744.949 466.1219Q744.2927 466.85626 742.7771 468.1375Q741.5115 469.2 741.1521 469.59064Q740.7927 469.96564 740.55835 470.34064L746.18335 470.34064ZM753.0896 471.7L751.68335 471.7L751.68335 462.73126Q751.1677 463.21564 750.3396 463.7Q749.5271 464.1844 748.87085 464.4344L748.87085 463.075Q750.0427 462.5125 750.9177 461.73126Q751.80835 460.9344 752.18335 460.2L753.0896 460.2L753.0896 471.7Z" fill-rule="nonzero"/><path fill="#000000" d="M777.49164 470.34064L777.49164 471.7L769.9135 471.7Q769.8979 471.1844 770.0854 470.71564Q770.36664 469.95 771.00726 469.2Q771.6479 468.45 772.851 467.46564Q774.7104 465.9344 775.36664 465.04376Q776.0229 464.1375 776.0229 463.34064Q776.0229 462.5125 775.42914 461.9344Q774.8354 461.35626 773.86664 461.35626Q772.851 461.35626 772.24164 461.96564Q771.63226 462.575 771.63226 463.65314L770.17914 463.5125Q770.3354 461.8875 771.30414 461.04376Q772.2729 460.2 773.8979 460.2Q775.55414 460.2 776.50726 461.1219Q777.476 462.02814 777.476 463.3719Q777.476 464.0594 777.19476 464.73126Q776.9135 465.3875 776.25726 466.1219Q775.601 466.85626 774.0854 468.1375Q772.81976 469.2 772.4604 469.59064Q772.101 469.96564 771.86664 470.34064L777.49164 470.34064ZM786.49164 470.34064L786.49164 471.7L778.9135 471.7Q778.8979 471.1844 779.0854 470.71564Q779.36664 469.95 780.00726 469.2Q780.6479 468.45 781.851 467.46564Q783.7104 465.9344 784.36664 465.04376Q785.0229 464.1375 785.0229 463.34064Q785.0229 462.5125 784.42914 461.9344Q783.8354 461.35626 782.86664 461.35626Q781.851 461.35626 781.24164 461.96564Q780.63226 462.575 780.63226 463.65314L779.17914 463.5125Q779.3354 461.8875 780.30414 461.04376Q781.2729 460.2 782.8979 460.2Q784.55414 460.2 785.50726 461.1219Q786.476 462.02814 786.476 463.3719Q786.476 464.0594 786.19476 464.73126Q785.9135 465.3875 785.25726 466.1219Q784.601 466.85626 783.0854 468.1375Q781.81976 469.2 781.4604 469.59064Q781.101 469.96564 780.86664 470.34064L786.49164 470.34064Z" fill-rule="nonzero"/><path fill="#000000" d="M808.8 470.34064L808.8 471.7L801.22186 471.7Q801.20624 471.1844 801.39374 470.71564Q801.675 469.95 802.3156 469.2Q802.95624 468.45 804.15936 467.46564Q806.01874 465.9344 806.675 465.04376Q807.33124 464.1375 807.33124 463.34064Q807.33124 462.5125 806.7375 461.9344Q806.14374 461.35626 805.175 461.35626Q804.15936 461.35626 803.55 461.96564Q802.9406 462.575 802.9406 463.65314L801.4875 463.5125Q801.64374 461.8875 802.6125 461.04376Q803.58124 460.2 805.20624 460.2Q806.8625 460.2 807.8156 461.1219Q808.78436 462.02814 808.78436 463.3719Q808.78436 464.0594 808.5031 464.73126Q808.22186 465.3875 807.5656 466.1219Q806.90936 466.85626 805.39374 468.1375Q804.1281 469.2 803.76874 469.59064Q803.40936 469.96564 803.175 470.34064L808.8 470.34064ZM810.40936 468.66876L811.8156 468.48126Q812.0656 469.6844 812.64374 470.21564Q813.22186 470.73126 814.0656 470.73126Q815.05 470.73126 815.7375 470.04376Q816.425 469.35626 816.425 468.34064Q816.425 467.3719 815.78436 466.7469Q815.15936 466.1219 814.175 466.1219Q813.78436 466.1219 813.1906 466.27814L813.34686 465.04376Q813.4875 465.0594 813.5656 465.0594Q814.47186 465.0594 815.1906 464.59064Q815.90936 464.1219 815.90936 463.1375Q815.90936 462.3719 815.3781 461.8719Q814.8625 461.35626 814.03436 461.35626Q813.20624 461.35626 812.65936 461.8719Q812.1125 462.3875 811.95624 463.41876L810.55 463.16876Q810.8156 461.7469 811.72186 460.98126Q812.64374 460.2 814.0031 460.2Q814.9406 460.2 815.72186 460.60626Q816.51874 460.9969 816.925 461.7Q817.34686 462.3875 817.34686 463.16876Q817.34686 463.91876 816.9406 464.52814Q816.55 465.1375 815.76874 465.4969Q816.78436 465.73126 817.34686 466.46564Q817.90936 467.2 817.90936 468.3094Q817.90936 469.8094 816.8156 470.85626Q815.72186 471.90314 814.05 471.90314Q812.55 471.90314 811.55 471.0125Q810.55 470.10626 810.40936 468.66876Z" fill-rule="nonzero"/><path fill="#000000" d="M840.10834 470.34064L840.10834 471.7L832.5302 471.7Q832.5146 471.1844 832.7021 470.71564Q832.98334 469.95 833.62396 469.2Q834.2646 468.45 835.4677 467.46564Q837.3271 465.9344 837.98334 465.04376Q838.6396 464.1375 838.6396 463.34064Q838.6396 462.5125 838.04584 461.9344Q837.4521 461.35626 836.48334 461.35626Q835.4677 461.35626 834.85834 461.96564Q834.24896 462.575 834.24896 463.65314L832.79584 463.5125Q832.9521 461.8875 833.92084 461.04376Q834.8896 460.2 836.5146 460.2Q838.17084 460.2 839.12396 461.1219Q840.0927 462.02814 840.0927 463.3719Q840.0927 464.0594 839.81146 464.73126Q839.5302 465.3875 838.87396 466.1219Q838.2177 466.85626 836.7021 468.1375Q835.43646 469.2 835.0771 469.59064Q834.7177 469.96564 834.48334 470.34064L840.10834 470.34064ZM846.2177 471.7L846.2177 468.95L841.24896 468.95L841.24896 467.66876L846.48334 460.2469L847.62396 460.2469L847.62396 467.66876L849.17084 467.66876L849.17084 468.95L847.62396 468.95L847.62396 471.7L846.2177 471.7ZM846.2177 467.66876L846.2177 462.4969L842.6396 467.66876L846.2177 467.66876Z" fill-rule="nonzero"/></svg>