<svg version="1.1" viewBox="0.0 0.0 884.0 546.0" fill="none" stroke="none" stroke-linecap="square" stroke-miterlimit="10" width="884" height="546" xmlns:xlink="http://www.w3.org/1999/xlink" xmlns="http://www.w3.org/2000/svg"><path fill="#ffffff" d="M0 0L884.0 0L884.0 546.0L0 546.0L0 0Z" fill-rule="nonzero"/><path stroke="#333333" stroke-width="1.0" stroke-linecap="butt" d="M86.5 466.5L856.5 466.5" fill-rule="nonzero"/><path stroke="#cccccc" stroke-width="1.0" stroke-linecap="butt" d="M86.5 358.5L856.5 358.5" fill-rule="nonzero"/><path stroke="#cccccc" stroke-width="1.0" stroke-linecap="butt" d="M86.5 250.5L856.5 250.5" fill-rule="nonzero"/><path stroke="#cccccc" stroke-width="1.0" stroke-linecap="butt" d="M86.5 142.5L856.5 142.5" fill-rule="nonzero"/><path stroke="#cccccc" stroke-width="1.0" stroke-linecap="butt" d="M86.5 34.5L856.5 34.5" fill-rule="nonzero"/><path stroke="#e6e6e6" stroke-width="1.0" stroke-linecap="butt" d="M86.5 448.5L856.5 448.5" fill-rule="nonzero"/><path stroke="#e6e6e6" stroke-width="1.0" stroke-linecap="butt" d="M86.5 430.5L856.5 430.5" fill-rule="nonzero"/><path stroke="#e6e6e6" stroke-width="1.0" stroke-linecap="butt" d="M86.5 412.5L856.5 412.5" fill-rule="nonzero"/><path stroke="#e6e6e6" stroke-width="1.0" stroke-linecap="butt" d="M86.5 394.5L856.5 394.5" fill-rule="nonzero"/><path stroke="#e6e6e6" stroke-width="1.0" stroke-linecap="butt" d="M86.5 376.5L856.5 376.5" fill-rule="nonzero"/><path stroke="#e6e6e6" stroke-width="1.0" stroke-linecap="butt" d="M86.5 340.5L856.5 340.5" fill-rule="nonzero"/><path stroke="#e6e6e6" stroke-width="1.0" stroke-linecap="butt" d="M86.5 322.5L856.5 322.5" fill-rule="nonzero"/><path stroke="#e6e6e6" stroke-width="1.0" stroke-linecap="butt" d="M86.5 304.5L856.5 304.5" fill-rule="nonzero"/><path stroke="#e6e6e6" stroke-width="1.0" stroke-linecap="butt" d="M86.5 286.5L856.5 286.5" fill-rule="nonzero"/><path stroke="#e6e6e6" stroke-width="1.0" stroke-linecap="butt" d="M86.5 268.5L856.5 268.5" fill-rule="nonzero"/><path stroke="#e6e6e6" stroke-width="1.0" stroke-linecap="butt" d="M86.5 232.5L856.5 232.5" fill-rule="nonzero"/><path stroke="#e6e6e6" stroke-width="1.0" stroke-linecap="butt" d="M86.5 214.5L856.5 214.5" fill-rule="nonzero"/><path stroke="#e6e6e6" stroke-width="1.0" stroke-linecap="butt" d="M86.5 196.5L856.5 196.5" fill-rule="nonzero"/><path stroke="#e6e6e6" stroke-width="1.0" stroke-linecap="butt" d="M86.5 178.5L856.5 178.5" fill-rule="nonzero"/><path stroke="#e6e6e6" stroke-width="1.0" stroke-linecap="butt" d="M86.5 160.5L856.5 160.5" fill-rule="nonzero"/><path stroke="#e6e6e6" stroke-width="1.0" stroke-linecap="butt" d="M86.5 124.5L856.5 124.5" fill-rule="nonzero"/><path stroke="#e6e6e6" stroke-width="1.0" stroke-linecap="butt" d="M86.5 106.5L856.5 106.5" fill-rule="nonzero"/><path stroke="#e6e6e6" stroke-width="1.0" stroke-linecap="butt" d="M86.5 88.5L856.5 88.5" fill-rule="nonzero"/><path stroke="#e6e6e6" stroke-width="1.0" stroke-linecap="butt" d="M86.5 70.5L856.5 70.5" fill-rule="nonzero"/><path stroke="#e6e6e6" stroke-width="1.0" stroke-linecap="butt" d="M86.5 52.5L856.5 52.5" fill-rule="nonzero"/><clipPath id="id_0"><path d="M86.3 34.3L856.7 34.3L856.7 466.7L86.3 466.7L86.3 34.3Z" clip-rule="nonzero"/></clipPath><path stroke="#4285f4" stroke-width="1.0" stroke-linecap="butt" stroke-dasharray="11.0,6.0" clip-path="url(#id_0)" d="M102.35 361.3025L134.45 307.2525L166.55 226.1775L198.65 104.565L230.75 285.6325L262.85 193.7475L294.95 55.92L327.05 261.31L359.15 364.005L391.25 415.3525L423.35 388.3275L455.45 347.79L487.55 407.245L519.65 436.9725L551.75 420.7575L583.85 396.435L615.95 431.5675L648.05 412.65L680.15 439.675L712.25 453.1875L744.35 445.08L776.45 455.89L808.55 461.295L840.65 463.9975" fill-rule="nonzero"/><path fill="#4285f4" clip-path="url(#id_0)" d="M106.85 361.3025C106.85 363.78778 104.83528 365.8025 102.35 365.8025C99.864716 365.8025 97.85 363.78778 97.85 361.3025C97.85 358.81723 99.864716 356.8025 102.35 356.8025C104.83528 356.8025 106.85 358.81723 106.85 361.3025Z" fill-rule="nonzero"/><path fill="#4285f4" clip-path="url(#id_0)" d="M138.95 307.2525C138.95 309.7378 136.93529 311.7525 134.45 311.7525C131.96472 311.7525 129.95 309.7378 129.95 307.2525C129.95 304.7672 131.96472 302.7525 134.45 302.7525C136.93529 302.7525 138.95 304.7672 138.95 307.2525Z" fill-rule="nonzero"/><path fill="#4285f4" clip-path="url(#id_0)" d="M171.05 226.1775C171.05 228.66278 169.03528 230.6775 166.55 230.6775C164.06471 230.6775 162.05 228.66278 162.05 226.1775C162.05 223.69221 164.06471 221.6775 166.55 221.6775C169.03528 221.6775 171.05 223.69221 171.05 226.1775Z" fill-rule="nonzero"/><path fill="#4285f4" clip-path="url(#id_0)" d="M203.15 104.565C203.15 107.05028 201.13528 109.065 198.65 109.065C196.16472 109.065 194.15 107.05028 194.15 104.565C194.15 102.07972 196.16472 100.065 198.65 100.065C201.13528 100.065 203.15 102.07972 203.15 104.565Z" fill-rule="nonzero"/><path fill="#4285f4" clip-path="url(#id_0)" d="M235.25 285.6325C235.25 288.11777 233.23528 290.1325 230.75 290.1325C228.26472 290.1325 226.25 288.11777 226.25 285.6325C226.25 283.14722 228.26472 281.1325 230.75 281.1325C233.23528 281.1325 235.25 283.14722 235.25 285.6325Z" fill-rule="nonzero"/><path fill="#4285f4" clip-path="url(#id_0)" d="M267.35 193.7475C267.35 196.23279 265.3353 198.2475 262.85 198.2475C260.36472 198.2475 258.35 196.23279 258.35 193.7475C258.35 191.26222 260.36472 189.2475 262.85 189.2475C265.3353 189.2475 267.35 191.26222 267.35 193.7475Z" fill-rule="nonzero"/><path fill="#4285f4" clip-path="url(#id_0)" d="M299.45 55.92C299.45 58.40528 297.43527 60.42 294.95 60.42C292.46472 60.42 290.45 58.40528 290.45 55.92C290.45 53.43472 292.46472 51.42 294.95 51.42C297.43527 51.42 299.45 53.43472 299.45 55.92Z" fill-rule="nonzero"/><path fill="#4285f4" clip-path="url(#id_0)" d="M331.55 261.31C331.55 263.7953 329.53528 265.81 327.05 265.81C324.56473 265.81 322.55 263.7953 322.55 261.31C322.55 258.8247 324.56473 256.81 327.05 256.81C329.53528 256.81 331.55 258.8247 331.55 261.31Z" fill-rule="nonzero"/><path fill="#4285f4" clip-path="url(#id_0)" d="M363.65 364.005C363.65 366.4903 361.63528 368.505 359.15 368.505C356.6647 368.505 354.65 366.4903 354.65 364.005C354.65 361.5197 356.6647 359.505 359.15 359.505C361.63528 359.505 363.65 361.5197 363.65 364.005Z" fill-rule="nonzero"/><path fill="#4285f4" clip-path="url(#id_0)" d="M395.75 415.3525C395.75 417.83777 393.7353 419.8525 391.25 419.8525C388.7647 419.8525 386.75 417.83777 386.75 415.3525C386.75 412.86722 388.7647 410.8525 391.25 410.8525C393.7353 410.8525 395.75 412.86722 395.75 415.3525Z" fill-rule="nonzero"/><path fill="#4285f4" clip-path="url(#id_0)" d="M427.85 388.3275C427.85 390.81277 425.8353 392.8275 423.35 392.8275C420.86472 392.8275 418.85 390.81277 418.85 388.3275C418.85 385.84222 420.86472 383.8275 423.35 383.8275C425.8353 383.8275 427.85 385.84222 427.85 388.3275Z" fill-rule="nonzero"/><path fill="#4285f4" clip-path="url(#id_0)" d="M459.95 347.79C459.95 350.27527 457.93527 352.29 455.45 352.29C452.96472 352.29 450.95 350.27527 450.95 347.79C450.95 345.30472 452.96472 343.29 455.45 343.29C457.93527 343.29 459.95 345.30472 459.95 347.79Z" fill-rule="nonzero"/><path fill="#4285f4" clip-path="url(#id_0)" d="M492.05 407.245C492.05 409.7303 490.03528 411.745 487.55 411.745C485.06473 411.745 483.05 409.7303 483.05 407.245C483.05 404.7597 485.06473 402.745 487.55 402.745C490.03528 402.745 492.05 404.7597 492.05 407.245Z" fill-rule="nonzero"/><path fill="#4285f4" clip-path="url(#id_0)" d="M524.15 436.9725C524.15 439.4578 522.13525 441.4725 519.65 441.4725C517.16473 441.4725 515.15 439.4578 515.15 436.9725C515.15 434.4872 517.16473 432.4725 519.65 432.4725C522.13525 432.4725 524.15 434.4872 524.15 436.9725Z" fill-rule="nonzero"/><path fill="#4285f4" clip-path="url(#id_0)" d="M556.25 420.7575C556.25 423.24277 554.2353 425.2575 551.75 425.2575C549.2647 425.2575 547.25 423.24277 547.25 420.7575C547.25 418.27222 549.2647 416.2575 551.75 416.2575C554.2353 416.2575 556.25 418.27222 556.25 420.7575Z" fill-rule="nonzero"/><path fill="#4285f4" clip-path="url(#id_0)" d="M588.35 396.435C588.35 398.9203 586.33527 400.935 583.85 400.935C581.36475 400.935 579.35 398.9203 579.35 396.435C579.35 393.9497 581.36475 391.935 583.85 391.935C586.33527 391.935 588.35 393.9497 588.35 396.435Z" fill-rule="nonzero"/><path fill="#4285f4" clip-path="url(#id_0)" d="M620.45 431.5675C620.45 434.0528 618.4353 436.0675 615.95 436.0675C613.4647 436.0675 611.45 434.0528 611.45 431.5675C611.45 429.0822 613.4647 427.0675 615.95 427.0675C618.4353 427.0675 620.45 429.0822 620.45 431.5675Z" fill-rule="nonzero"/><path fill="#4285f4" clip-path="url(#id_0)" d="M652.55 412.65C652.55 415.13528 650.5353 417.15 648.05 417.15C645.5647 417.15 643.55 415.13528 643.55 412.65C643.55 410.1647 645.5647 408.15 648.05 408.15C650.5353 408.15 652.55 410.1647 652.55 412.65Z" fill-rule="nonzero"/><path fill="#4285f4" clip-path="url(#id_0)" d="M684.65 439.675C684.65 442.16028 682.63525 444.175 680.15 444.175C677.66473 444.175 675.65 442.16028 675.65 439.675C675.65 437.18973 677.66473 435.175 680.15 435.175C682.63525 435.175 684.65 437.18973 684.65 439.675Z" fill-rule="nonzero"/><path fill="#4285f4" clip-path="url(#id_0)" d="M716.75 453.1875C716.75 455.6728 714.7353 457.6875 712.25 457.6875C709.7647 457.6875 707.75 455.6728 707.75 453.1875C707.75 450.7022 709.7647 448.6875 712.25 448.6875C714.7353 448.6875 716.75 450.7022 716.75 453.1875Z" fill-rule="nonzero"/><path fill="#4285f4" clip-path="url(#id_0)" d="M748.85 445.08C748.85 447.56528 746.83527 449.58 744.35 449.58C741.86475 449.58 739.85 447.56528 739.85 445.08C739.85 442.59473 741.86475 440.58 744.35 440.58C746.83527 440.58 748.85 442.59473 748.85 445.08Z" fill-rule="nonzero"/><path fill="#4285f4" clip-path="url(#id_0)" d="M780.95 455.89C780.95 458.37527 778.9353 460.39 776.45 460.39C773.9647 460.39 771.95 458.37527 771.95 455.89C771.95 453.40472 773.9647 451.39 776.45 451.39C778.9353 451.39 780.95 453.40472 780.95 455.89Z" fill-rule="nonzero"/><path fill="#4285f4" clip-path="url(#id_0)" d="M813.05 461.295C813.05 463.78027 811.0353 465.795 808.55 465.795C806.0647 465.795 804.05 463.78027 804.05 461.295C804.05 458.80972 806.0647 456.795 808.55 456.795C811.0353 456.795 813.05 458.80972 813.05 461.295Z" fill-rule="nonzero"/><path fill="#4285f4" clip-path="url(#id_0)" d="M845.15 463.9975C845.15 466.4828 843.13525 468.4975 840.65 468.4975C838.16473 468.4975 836.15 466.4828 836.15 463.9975C836.15 461.5122 838.16473 459.4975 840.65 459.4975C843.13525 459.4975 845.15 461.5122 845.15 463.9975Z" fill-rule="nonzero"/><path fill="#000000" d="M469.29688 515.7L469.29688 507.10626L470.35938 507.10626L470.35938 512.0125L472.84375 509.48126L474.21875 509.48126L471.82812 511.77814L474.45312 515.7L473.15625 515.7L471.09375 512.5125L470.35938 513.23126L470.35938 515.7L469.29688 515.7Z" fill-rule="nonzero"/><path fill="#000000" d="M38.30001 264.39062L30.721888 264.39062L30.721888 267.21875L29.706263 267.21875L29.706263 260.40625L30.721888 260.40625L30.721888 263.25L38.30001 263.25L38.30001 264.39062ZM40.83126 257.6875Q39.721886 258.5625 38.253136 259.17188Q36.76876 259.76562 35.190636 259.76562Q33.80001 259.76562 32.51876 259.32812Q31.034388 258.79688 29.565638 257.6875L29.565638 256.9375Q30.784388 257.64062 31.300013 257.875Q32.11251 258.23438 32.98751 258.4375Q34.08126 258.6875 35.190636 258.6875Q38.01876 258.6875 40.83126 256.9375L40.83126 257.6875ZM38.30001 256.40625L35.065636 254.14062L32.08126 256.23438L32.08126 254.92188L33.534386 253.96875Q33.95626 253.70312 34.23751 253.53125Q33.846886 253.28125 33.55001 253.0625L32.08126 252.01562L32.08126 250.75L35.003136 252.90625L38.30001 250.59375L38.30001 251.875L36.36251 253.15625L35.846886 253.5L38.30001 255.14062L38.30001 256.40625ZM40.83126 249.01562L40.83126 249.76562Q38.01876 248.01562 35.190636 248.01562Q34.096886 248.01562 33.003136 248.26562Q32.128136 248.46875 31.315638 248.82812Q30.800013 249.0625 29.565638 249.76562L29.565638 249.01562Q31.034388 247.92188 32.51876 247.39062Q33.80001 246.9375 35.190636 246.9375Q36.76876 246.9375 38.253136 247.54688Q39.721886 248.15625 40.83126 249.01562Z" fill-rule="nonzero"/><path fill="#000000" d="M73.8 466.46564Q73.8 464.9344 74.1125 464.0125Q74.425 463.075 75.03438 462.575Q75.65938 462.075 76.59688 462.075Q77.28438 462.075 77.8 462.35626Q78.33125 462.6375 78.675 463.16876Q79.01875 463.6844 79.20625 464.4344Q79.39375 465.1844 79.39375 466.46564Q79.39375 467.98126 79.08125 468.90314Q78.78438 469.825 78.15938 470.34064Q77.55 470.84064 76.59688 470.84064Q75.3625 470.84064 74.64375 469.95Q73.8 468.8875 73.8 466.46564ZM74.87813 466.46564Q74.87813 468.575 75.37813 469.27814Q75.87813 469.98126 76.59688 469.98126Q77.33125 469.98126 77.81563 469.27814Q78.31563 468.575 78.31563 466.46564Q78.31563 464.34064 77.81563 463.65314Q77.33125 462.95 76.58125 462.95Q75.8625 462.95 75.425 463.5594Q74.87813 464.34064 74.87813 466.46564Z" fill-rule="nonzero"/><path fill="#000000" d="M70.175 362.6L70.175 360.5375L66.45625 360.5375L66.45625 359.56876L70.37813 354.00626L71.2375 354.00626L71.2375 359.56876L72.39375 359.56876L72.39375 360.5375L71.2375 360.5375L71.2375 362.6L70.175 362.6ZM70.175 359.56876L70.175 355.70938L67.4875 359.56876L70.175 359.56876ZM73.8 358.36563Q73.8 356.83438 74.1125 355.9125Q74.425 354.975 75.03438 354.475Q75.65938 353.975 76.59688 353.975Q77.28438 353.975 77.8 354.25626Q78.33125 354.5375 78.675 355.06876Q79.01875 355.58438 79.20625 356.33438Q79.39375 357.08438 79.39375 358.36563Q79.39375 359.88126 79.08125 360.80313Q78.78438 361.725 78.15938 362.24063Q77.55 362.74063 76.59688 362.74063Q75.3625 362.74063 74.64375 361.85Q73.8 360.7875 73.8 358.36563ZM74.87813 358.36563Q74.87813 360.475 75.37813 361.17813Q75.87813 361.88126 76.59688 361.88126Q77.33125 361.88126 77.81563 361.17813Q78.31563 360.475 78.31563 358.36563Q78.31563 356.24063 77.81563 355.55313Q77.33125 354.85 76.58125 354.85Q75.8625 354.85 75.425 355.45938Q74.87813 356.24063 74.87813 358.36563Z" fill-rule="nonzero"/><path fill="#000000" d="M68.425 249.84375Q67.76875 249.59375 67.44063 249.15625Q67.12813 248.70312 67.12813 248.09375Q67.12813 247.15625 67.8 246.51562Q68.4875 245.875 69.59688 245.875Q70.72188 245.875 71.40938 246.53125Q72.09688 247.1875 72.09688 248.125Q72.09688 248.71875 71.78438 249.15625Q71.47188 249.59375 70.83125 249.84375Q71.62813 250.09375 72.03438 250.67188Q72.44063 251.25 72.44063 252.04688Q72.44063 253.14062 71.65938 253.89062Q70.89375 254.64062 69.6125 254.64062Q68.34688 254.64062 67.56563 253.89062Q66.78438 253.14062 66.78438 252.01562Q66.78438 251.17188 67.20625 250.60938Q67.64375 250.04688 68.425 249.84375ZM68.20625 248.04688Q68.20625 248.65625 68.59688 249.04688Q69.00313 249.4375 69.62813 249.4375Q70.2375 249.4375 70.62813 249.0625Q71.01875 248.67188 71.01875 248.10938Q71.01875 247.53125 70.6125 247.14062Q70.20625 246.73438 69.6125 246.73438Q69.00313 246.73438 68.59688 247.125Q68.20625 247.51562 68.20625 248.04688ZM67.87813 252.01562Q67.87813 252.46875 68.08125 252.89062Q68.3 253.3125 68.72188 253.54688Q69.14375 253.78125 69.62813 253.78125Q70.37813 253.78125 70.8625 253.29688Q71.3625 252.8125 71.3625 252.0625Q71.3625 251.29688 70.8625 250.79688Q70.3625 250.29688 69.59688 250.29688Q68.84688 250.29688 68.3625 250.79688Q67.87813 251.28125 67.87813 252.01562ZM73.8 250.26562Q73.8 248.73438 74.1125 247.8125Q74.425 246.875 75.03438 246.375Q75.65938 245.875 76.59688 245.875Q77.28438 245.875 77.8 246.15625Q78.33125 246.4375 78.675 246.96875Q79.01875 247.48438 79.20625 248.23438Q79.39375 248.98438 79.39375 250.26562Q79.39375 251.78125 79.08125 252.70312Q78.78438 253.625 78.15938 254.14062Q77.55 254.64062 76.59688 254.64062Q75.3625 254.64062 74.64375 253.75Q73.8 252.6875 73.8 250.26562ZM74.87813 250.26562Q74.87813 252.375 75.37813 253.07812Q75.87813 253.78125 76.59688 253.78125Q77.33125 253.78125 77.81563 253.07812Q78.31563 252.375 78.31563 250.26562Q78.31563 248.14062 77.81563 247.45312Q77.33125 246.75 76.58125 246.75Q75.8625 246.75 75.425 247.35938Q74.87813 248.14062 74.87813 250.26562Z" fill-rule="nonzero"/><path fill="#000000" d="M63.76875 146.4L62.721874 146.4L62.721874 139.68124Q62.33125 140.04062 61.70625 140.41562Q61.096874 140.775 60.6125 140.94687L60.6125 139.93124Q61.4875 139.50937 62.14375 138.93124Q62.815624 138.3375 63.096874 137.775L63.76875 137.775L63.76875 146.4ZM72.34688 145.38437L72.34688 146.4L66.65938 146.4Q66.65938 146.025 66.78438 145.66562Q67.00313 145.0875 67.47188 144.525Q67.95625 143.9625 68.8625 143.22812Q70.26875 142.07187 70.75313 141.4Q71.25313 140.72812 71.25313 140.13437Q71.25313 139.50937 70.8 139.0875Q70.34688 138.65 69.62813 138.65Q68.8625 138.65 68.40938 139.10312Q67.95625 139.55624 67.94063 140.36874L66.8625 140.25937Q66.97188 139.04062 67.69063 138.41562Q68.425 137.775 69.65938 137.775Q70.89375 137.775 71.6125 138.4625Q72.33125 139.15 72.33125 140.16562Q72.33125 140.68124 72.1125 141.18124Q71.90938 141.66562 71.40938 142.22812Q70.925 142.775 69.8 143.72812Q68.84688 144.525 68.56563 144.82187Q68.3 145.10312 68.12813 145.38437L72.34688 145.38437ZM73.8 142.16562Q73.8 140.63437 74.1125 139.7125Q74.425 138.775 75.03438 138.275Q75.65938 137.775 76.59688 137.775Q77.28438 137.775 77.8 138.05624Q78.33125 138.3375 78.675 138.86874Q79.01875 139.38437 79.20625 140.13437Q79.39375 140.88437 79.39375 142.16562Q79.39375 143.68124 79.08125 144.60312Q78.78438 145.525 78.15938 146.04062Q77.55 146.54062 76.59688 146.54062Q75.3625 146.54062 74.64375 145.65Q73.8 144.5875 73.8 142.16562ZM74.87813 142.16562Q74.87813 144.275 75.37813 144.97812Q75.87813 145.68124 76.59688 145.68124Q77.33125 145.68124 77.81563 144.97812Q78.31563 144.275 78.31563 142.16562Q78.31563 140.04062 77.81563 139.35312Q77.33125 138.65 76.58125 138.65Q75.8625 138.65 75.425 139.25937Q74.87813 140.04062 74.87813 142.16562Z" fill-rule="nonzero"/><path fill="#000000" d="M63.76875 38.3L62.721874 38.3L62.721874 31.58125Q62.33125 31.940624 61.70625 32.315624Q61.096874 32.675 60.6125 32.846874L60.6125 31.83125Q61.4875 31.409374 62.14375 30.83125Q62.815624 30.2375 63.096874 29.675L63.76875 29.675L63.76875 38.3ZM72.26875 31.815624L71.22188 31.89375Q71.08125 31.26875 70.83125 30.9875Q70.39375 30.534374 69.76875 30.534374Q69.26875 30.534374 68.87813 30.815624Q68.39375 31.190624 68.09688 31.89375Q67.81563 32.58125 67.8 33.8625Q68.175 33.284374 68.72188 33.003124Q69.28438 32.721874 69.89375 32.721874Q70.94063 32.721874 71.675 33.503124Q72.425 34.284374 72.425 35.503124Q72.425 36.315624 72.06563 37.01875Q71.72188 37.70625 71.1125 38.08125Q70.50313 38.440624 69.7375 38.440624Q68.40938 38.440624 67.58125 37.471874Q66.75313 36.503124 66.75313 34.284374Q66.75313 31.784374 67.675 30.659374Q68.47188 29.675 69.83125 29.675Q70.84688 29.675 71.4875 30.253124Q72.14375 30.815624 72.26875 31.815624ZM67.97188 35.51875Q67.97188 36.065624 68.19063 36.565624Q68.425 37.05 68.83125 37.315624Q69.25313 37.58125 69.72188 37.58125Q70.37813 37.58125 70.8625 37.05Q71.34688 36.503124 71.34688 35.58125Q71.34688 34.690624 70.8625 34.175Q70.39375 33.659374 69.675 33.659374Q68.95625 33.659374 68.45625 34.175Q67.97188 34.690624 67.97188 35.51875ZM73.8 34.065624Q73.8 32.534374 74.1125 31.6125Q74.425 30.675 75.03438 30.175Q75.65938 29.675 76.59688 29.675Q77.28438 29.675 77.8 29.95625Q78.33125 30.2375 78.675 30.76875Q79.01875 31.284374 79.20625 32.034374Q79.39375 32.784374 79.39375 34.065624Q79.39375 35.58125 79.08125 36.503124Q78.78438 37.425 78.15938 37.940624Q77.55 38.440624 76.59688 38.440624Q75.3625 38.440624 74.64375 37.55Q73.8 36.4875 73.8 34.065624ZM74.87813 34.065624Q74.87813 36.175 75.37813 36.878124Q75.87813 37.58125 76.59688 37.58125Q77.33125 37.58125 77.81563 36.878124Q78.31563 36.175 78.31563 34.065624Q78.31563 31.940624 77.81563 31.253124Q77.33125 30.55 76.58125 30.55Q75.8625 30.55 75.425 31.159374Q74.87813 31.940624 74.87813 34.065624Z" fill-rule="nonzero"/><path fill="#000000" d="M103.31875 483.7L102.27187 483.7L102.27187 476.98126Q101.88125 477.34064 101.25625 477.71564Q100.64687 478.075 100.1625 478.2469L100.1625 477.23126Q101.0375 476.8094 101.69375 476.23126Q102.36562 475.6375 102.64687 475.075L103.31875 475.075L103.31875 483.7Z" fill-rule="nonzero"/><path fill="#000000" d="M136.99687 482.6844L136.99687 483.7L131.30937 483.7Q131.30937 483.325 131.43437 482.96564Q131.65312 482.3875 132.12187 481.825Q132.60625 481.2625 133.5125 480.52814Q134.91875 479.3719 135.40312 478.7Q135.90312 478.02814 135.90312 477.4344Q135.90312 476.8094 135.45 476.3875Q134.99687 475.95 134.27812 475.95Q133.5125 475.95 133.05937 476.40314Q132.60625 476.85626 132.59062 477.66876L131.5125 477.5594Q131.62187 476.34064 132.34062 475.71564Q133.075 475.075 134.30937 475.075Q135.54375 475.075 136.2625 475.7625Q136.98125 476.45 136.98125 477.46564Q136.98125 477.98126 136.7625 478.48126Q136.55937 478.96564 136.05937 479.52814Q135.575 480.075 134.45 481.02814Q133.49687 481.825 133.21562 482.1219Q132.95 482.40314 132.77812 482.6844L136.99687 482.6844Z" fill-rule="nonzero"/><path fill="#000000" d="M163.55 481.4344L164.6125 481.29376Q164.78438 482.1844 165.22188 482.59064Q165.65938 482.98126 166.28438 482.98126Q167.03438 482.98126 167.55 482.46564Q168.06563 481.95 168.06563 481.1844Q168.06563 480.46564 167.58125 479.9969Q167.1125 479.5125 166.37813 479.5125Q166.08125 479.5125 165.62813 479.6375L165.75313 478.7Q165.8625 478.71564 165.925 478.71564Q166.59688 478.71564 167.12813 478.3719Q167.675 478.0125 167.675 477.27814Q167.675 476.7 167.28438 476.325Q166.89375 475.9344 166.26875 475.9344Q165.65938 475.9344 165.2375 476.325Q164.83125 476.71564 164.72188 477.48126L163.65938 477.29376Q163.84688 476.2469 164.53438 475.66876Q165.22188 475.075 166.2375 475.075Q166.94063 475.075 167.53438 475.3875Q168.12813 475.6844 168.44063 476.2Q168.75313 476.71564 168.75313 477.3094Q168.75313 477.85626 168.45625 478.325Q168.15938 478.77814 167.58125 479.04376Q168.33125 479.21564 168.75313 479.77814Q169.175 480.325 169.175 481.16876Q169.175 482.29376 168.34688 483.075Q167.53438 483.85626 166.28438 483.85626Q165.15938 483.85626 164.40938 483.1844Q163.65938 482.4969 163.55 481.4344Z" fill-rule="nonzero"/><path fill="#000000" d="M199.025 483.7L199.025 481.6375L195.30624 481.6375L195.30624 480.66876L199.22812 475.10626L200.0875 475.10626L200.0875 480.66876L201.24374 480.66876L201.24374 481.6375L200.0875 481.6375L200.0875 483.7L199.025 483.7ZM199.025 480.66876L199.025 476.8094L196.3375 480.66876L199.025 480.66876Z" fill-rule="nonzero"/><path fill="#000000" d="M227.75 481.45L228.85938 481.35626Q228.98438 482.16876 229.42188 482.575Q229.875 482.98126 230.51562 482.98126Q231.26562 482.98126 231.79688 482.40314Q232.32812 481.825 232.32812 480.8875Q232.32812 479.98126 231.8125 479.46564Q231.3125 478.9344 230.48438 478.9344Q229.98438 478.9344 229.5625 479.16876Q229.15625 479.40314 228.92188 479.7625L227.9375 479.6375L228.76562 475.23126L233.04688 475.23126L233.04688 476.23126L229.60938 476.23126L229.15625 478.54376Q229.92188 477.9969 230.76562 477.9969Q231.89062 477.9969 232.65625 478.77814Q233.4375 479.5594 233.4375 480.79376Q233.4375 481.95 232.76562 482.8094Q231.9375 483.84064 230.51562 483.84064Q229.34375 483.84064 228.59375 483.1844Q227.85938 482.52814 227.75 481.45Z" fill-rule="nonzero"/><path fill="#000000" d="M265.31876 477.21564L264.27188 477.29376Q264.13126 476.66876 263.88126 476.3875Q263.44376 475.9344 262.81876 475.9344Q262.31876 475.9344 261.92813 476.21564Q261.44376 476.59064 261.14688 477.29376Q260.86563 477.98126 260.85 479.2625Q261.225 478.6844 261.77188 478.40314Q262.33438 478.1219 262.94376 478.1219Q263.99063 478.1219 264.725 478.90314Q265.475 479.6844 265.475 480.90314Q265.475 481.71564 265.11563 482.41876Q264.77188 483.10626 264.1625 483.48126Q263.55313 483.84064 262.7875 483.84064Q261.45938 483.84064 260.63126 482.8719Q259.80313 481.90314 259.80313 479.6844Q259.80313 477.1844 260.725 476.0594Q261.52188 475.075 262.88126 475.075Q263.89688 475.075 264.5375 475.65314Q265.19376 476.21564 265.31876 477.21564ZM261.02188 480.91876Q261.02188 481.46564 261.24063 481.96564Q261.475 482.45 261.88126 482.71564Q262.30313 482.98126 262.77188 482.98126Q263.42813 482.98126 263.9125 482.45Q264.39688 481.90314 264.39688 480.98126Q264.39688 480.09064 263.9125 479.575Q263.44376 479.0594 262.725 479.0594Q262.00626 479.0594 261.50626 479.575Q261.02188 480.09064 261.02188 480.91876Z" fill-rule="nonzero"/><path fill="#000000" d="M292.0125 476.23126L292.0125 475.21564L297.575 475.21564L297.575 476.04376Q296.7625 476.91876 295.95 478.3719Q295.15314 479.8094 294.71564 481.34064Q294.3875 482.41876 294.3094 483.7L293.21564 483.7Q293.23126 482.6844 293.60626 481.2469Q293.9969 479.8094 294.7 478.48126Q295.41876 477.15314 296.23126 476.23126L292.0125 476.23126Z" fill-rule="nonzero"/><path fill="#000000" d="M325.675 479.04376Q325.01874 478.79376 324.6906 478.35626Q324.3781 477.90314 324.3781 477.29376Q324.3781 476.35626 325.05 475.71564Q325.7375 475.075 326.84686 475.075Q327.97186 475.075 328.65936 475.73126Q329.34686 476.3875 329.34686 477.325Q329.34686 477.91876 329.03436 478.35626Q328.72186 478.79376 328.08124 479.04376Q328.8781 479.29376 329.28436 479.8719Q329.6906 480.45 329.6906 481.2469Q329.6906 482.34064 328.90936 483.09064Q328.14374 483.84064 326.8625 483.84064Q325.59686 483.84064 324.8156 483.09064Q324.03436 482.34064 324.03436 481.21564Q324.03436 480.3719 324.45624 479.8094Q324.89374 479.2469 325.675 479.04376ZM325.45624 477.2469Q325.45624 477.85626 325.84686 478.2469Q326.2531 478.6375 326.8781 478.6375Q327.4875 478.6375 327.8781 478.2625Q328.26874 477.8719 328.26874 477.3094Q328.26874 476.73126 327.8625 476.34064Q327.45624 475.9344 326.8625 475.9344Q326.2531 475.9344 325.84686 476.325Q325.45624 476.71564 325.45624 477.2469ZM325.1281 481.21564Q325.1281 481.66876 325.33124 482.09064Q325.55 482.5125 325.97186 482.7469Q326.39374 482.98126 326.8781 482.98126Q327.6281 482.98126 328.1125 482.4969Q328.6125 482.0125 328.6125 481.2625Q328.6125 480.4969 328.1125 479.9969Q327.6125 479.4969 326.84686 479.4969Q326.09686 479.4969 325.6125 479.9969Q325.1281 480.48126 325.1281 481.21564Z" fill-rule="nonzero"/><path fill="#000000" d="M356.30624 481.71564L357.32187 481.6219Q357.44687 482.34064 357.80624 482.66876Q358.18124 482.98126 358.74374 482.98126Q359.22812 482.98126 359.5875 482.7625Q359.9625 482.52814 360.19687 482.16876Q360.43124 481.79376 360.5875 481.16876Q360.74374 480.52814 360.74374 479.8719Q360.74374 479.79376 360.74374 479.65314Q360.43124 480.15314 359.88437 480.48126Q359.3375 480.79376 358.69687 480.79376Q357.61874 480.79376 356.88437 480.02814Q356.15 479.2469 356.15 477.98126Q356.15 476.66876 356.91562 475.8719Q357.69687 475.075 358.85312 475.075Q359.68124 475.075 360.36874 475.52814Q361.07187 475.98126 361.43124 476.825Q361.79062 477.65314 361.79062 479.23126Q361.79062 480.8719 361.43124 481.85626Q361.0875 482.825 360.36874 483.34064Q359.66562 483.84064 358.72812 483.84064Q357.7125 483.84064 357.07187 483.29376Q356.43124 482.73126 356.30624 481.71564ZM360.61874 477.91876Q360.61874 477.0125 360.13437 476.48126Q359.66562 475.95 358.97812 475.95Q358.275 475.95 357.74374 476.52814Q357.22812 477.09064 357.22812 478.0125Q357.22812 478.825 357.72812 479.34064Q358.22812 479.85626 358.94687 479.85626Q359.68124 479.85626 360.15 479.34064Q360.61874 478.825 360.61874 477.91876Z" fill-rule="nonzero"/><path fill="#000000" d="M388.71875 483.7L387.67188 483.7L387.67188 476.98126Q387.28125 477.34064 386.65625 477.71564Q386.04688 478.075 385.5625 478.2469L385.5625 477.23126Q386.4375 476.8094 387.09375 476.23126Q387.76562 475.6375 388.04688 475.075L388.71875 475.075L388.71875 483.7ZM391.75 479.46564Q391.75 477.9344 392.0625 477.0125Q392.375 476.075 392.98438 475.575Q393.60938 475.075 394.54688 475.075Q395.23438 475.075 395.75 475.35626Q396.28125 475.6375 396.625 476.16876Q396.96875 476.6844 397.15625 477.4344Q397.34375 478.1844 397.34375 479.46564Q397.34375 480.98126 397.03125 481.90314Q396.73438 482.825 396.10938 483.34064Q395.5 483.84064 394.54688 483.84064Q393.3125 483.84064 392.59375 482.95Q391.75 481.8875 391.75 479.46564ZM392.82812 479.46564Q392.82812 481.575 393.32812 482.27814Q393.82812 482.98126 394.54688 482.98126Q395.28125 482.98126 395.76562 482.27814Q396.26562 481.575 396.26562 479.46564Q396.26562 477.34064 395.76562 476.65314Q395.28125 475.95 394.53125 475.95Q393.8125 475.95 393.375 476.5594Q392.82812 477.34064 392.82812 479.46564Z" fill-rule="nonzero"/><path fill="#000000" d="M420.81876 483.7L419.77188 483.7L419.77188 476.98126Q419.38126 477.34064 418.75626 477.71564Q418.14688 478.075 417.6625 478.2469L417.6625 477.23126Q418.5375 476.8094 419.19376 476.23126Q419.86563 475.6375 420.14688 475.075L420.81876 475.075L420.81876 483.7ZM427.81876 483.7L426.77188 483.7L426.77188 476.98126Q426.38126 477.34064 425.75626 477.71564Q425.14688 478.075 424.6625 478.2469L424.6625 477.23126Q425.5375 476.8094 426.19376 476.23126Q426.86563 475.6375 427.14688 475.075L427.81876 475.075L427.81876 483.7Z" fill-rule="nonzero"/><path fill="#000000" d="M452.91876 483.7L451.8719 483.7L451.8719 476.98126Q451.48126 477.34064 450.85626 477.71564Q450.2469 478.075 449.7625 478.2469L449.7625 477.23126Q450.6375 476.8094 451.29376 476.23126Q451.96564 475.6375 452.2469 475.075L452.91876 475.075L452.91876 483.7ZM461.4969 482.6844L461.4969 483.7L455.8094 483.7Q455.8094 483.325 455.9344 482.96564Q456.15314 482.3875 456.6219 481.825Q457.10626 481.2625 458.0125 480.52814Q459.41876 479.3719 459.90314 478.7Q460.40314 478.02814 460.40314 477.4344Q460.40314 476.8094 459.95 476.3875Q459.4969 475.95 458.77814 475.95Q458.0125 475.95 457.5594 476.40314Q457.10626 476.85626 457.09064 477.66876L456.0125 477.5594Q456.1219 476.34064 456.84064 475.71564Q457.575 475.075 458.8094 475.075Q460.04376 475.075 460.7625 475.7625Q461.48126 476.45 461.48126 477.46564Q461.48126 477.98126 461.2625 478.48126Q461.0594 478.96564 460.5594 479.52814Q460.075 480.075 458.95 481.02814Q457.9969 481.825 457.71564 482.1219Q457.45 482.40314 457.27814 482.6844L461.4969 482.6844Z" fill-rule="nonzero"/><path fill="#000000" d="M485.01874 483.7L483.97186 483.7L483.97186 476.98126Q483.58124 477.34064 482.95624 477.71564Q482.34686 478.075 481.8625 478.2469L481.8625 477.23126Q482.7375 476.8094 483.39374 476.23126Q484.0656 475.6375 484.34686 475.075L485.01874 475.075L485.01874 483.7ZM488.05 481.4344L489.1125 481.29376Q489.28436 482.1844 489.72186 482.59064Q490.15936 482.98126 490.78436 482.98126Q491.53436 482.98126 492.05 482.46564Q492.5656 481.95 492.5656 481.1844Q492.5656 480.46564 492.08124 479.9969Q491.6125 479.5125 490.8781 479.5125Q490.58124 479.5125 490.1281 479.6375L490.2531 478.7Q490.3625 478.71564 490.425 478.71564Q491.09686 478.71564 491.6281 478.3719Q492.175 478.0125 492.175 477.27814Q492.175 476.7 491.78436 476.325Q491.39374 475.9344 490.76874 475.9344Q490.15936 475.9344 489.7375 476.325Q489.33124 476.71564 489.22186 477.48126L488.15936 477.29376Q488.34686 476.2469 489.03436 475.66876Q489.72186 475.075 490.7375 475.075Q491.4406 475.075 492.03436 475.3875Q492.6281 475.6844 492.9406 476.2Q493.2531 476.71564 493.2531 477.3094Q493.2531 477.85626 492.95624 478.325Q492.65936 478.77814 492.08124 479.04376Q492.83124 479.21564 493.2531 479.77814Q493.675 480.325 493.675 481.16876Q493.675 482.29376 492.84686 483.075Q492.03436 483.85626 490.78436 483.85626Q489.65936 483.85626 488.90936 483.1844Q488.15936 482.4969 488.05 481.4344Z" fill-rule="nonzero"/><path fill="#000000" d="M517.1188 483.7L516.0719 483.7L516.0719 476.98126Q515.6813 477.34064 515.0563 477.71564Q514.4469 478.075 513.9625 478.2469L513.9625 477.23126Q514.8375 476.8094 515.4938 476.23126Q516.16565 475.6375 516.4469 475.075L517.1188 475.075L517.1188 483.7ZM523.525 483.7L523.525 481.6375L519.8063 481.6375L519.8063 480.66876L523.72815 475.10626L524.5875 475.10626L524.5875 480.66876L525.7438 480.66876L525.7438 481.6375L524.5875 481.6375L524.5875 483.7L523.525 483.7ZM523.525 480.66876L523.525 476.8094L520.8375 480.66876L523.525 480.66876Z" fill-rule="nonzero"/><path fill="#000000" d="M549.21875 483.7L548.1719 483.7L548.1719 476.98126Q547.78125 477.34064 547.15625 477.71564Q546.5469 478.075 546.0625 478.2469L546.0625 477.23126Q546.9375 476.8094 547.59375 476.23126Q548.2656 475.6375 548.5469 475.075L549.21875 475.075L549.21875 483.7ZM552.25 481.45L553.3594 481.35626Q553.4844 482.16876 553.9219 482.575Q554.375 482.98126 555.0156 482.98126Q555.7656 482.98126 556.2969 482.40314Q556.8281 481.825 556.8281 480.8875Q556.8281 479.98126 556.3125 479.46564Q555.8125 478.9344 554.9844 478.9344Q554.4844 478.9344 554.0625 479.16876Q553.65625 479.40314 553.4219 479.7625L552.4375 479.6375L553.2656 475.23126L557.5469 475.23126L557.5469 476.23126L554.1094 476.23126L553.65625 478.54376Q554.4219 477.9969 555.2656 477.9969Q556.3906 477.9969 557.15625 478.77814Q557.9375 479.5594 557.9375 480.79376Q557.9375 481.95 557.2656 482.8094Q556.4375 483.84064 555.0156 483.84064Q553.84375 483.84064 553.09375 483.1844Q552.3594 482.52814 552.25 481.45Z" fill-rule="nonzero"/><path fill="#000000" d="M581.3187 483.7L580.27185 483.7L580.27185 476.98126Q579.8812 477.34064 579.2562 477.71564Q578.64685 478.075 578.1625 478.2469L578.1625 477.23126Q579.0375 476.8094 579.6937 476.23126Q580.3656 475.6375 580.64685 475.075L581.3187 475.075L581.3187 483.7ZM589.8187 477.21564L588.77185 477.29376Q588.6312 476.66876 588.3812 476.3875Q587.9437 475.9344 587.3187 475.9344Q586.8187 475.9344 586.4281 476.21564Q585.9437 476.59064 585.64685 477.29376Q585.3656 477.98126 585.35 479.2625Q585.725 478.6844 586.27185 478.40314Q586.83435 478.1219 587.4437 478.1219Q588.4906 478.1219 589.225 478.90314Q589.975 479.6844 589.975 480.90314Q589.975 481.71564 589.6156 482.41876Q589.27185 483.10626 588.6625 483.48126Q588.0531 483.84064 587.2875 483.84064Q585.95935 483.84064 585.1312 482.8719Q584.3031 481.90314 584.3031 479.6844Q584.3031 477.1844 585.225 476.0594Q586.02185 475.075 587.3812 475.075Q588.39685 475.075 589.0375 475.65314Q589.6937 476.21564 589.8187 477.21564ZM585.52185 480.91876Q585.52185 481.46564 585.7406 481.96564Q585.975 482.45 586.3812 482.71564Q586.8031 482.98126 587.27185 482.98126Q587.9281 482.98126 588.4125 482.45Q588.89685 481.90314 588.89685 480.98126Q588.89685 480.09064 588.4125 479.575Q587.9437 479.0594 587.225 479.0594Q586.5062 479.0594 586.0062 479.575Q585.52185 480.09064 585.52185 480.91876Z" fill-rule="nonzero"/><path fill="#000000" d="M613.41876 483.7L612.3719 483.7L612.3719 476.98126Q611.98126 477.34064 611.35626 477.71564Q610.7469 478.075 610.2625 478.2469L610.2625 477.23126Q611.1375 476.8094 611.79376 476.23126Q612.46564 475.6375 612.7469 475.075L613.41876 475.075L613.41876 483.7ZM616.5125 476.23126L616.5125 475.21564L622.075 475.21564L622.075 476.04376Q621.2625 476.91876 620.45 478.3719Q619.65314 479.8094 619.21564 481.34064Q618.8875 482.41876 618.8094 483.7L617.71564 483.7Q617.73126 482.6844 618.10626 481.2469Q618.4969 479.8094 619.2 478.48126Q619.91876 477.15314 620.73126 476.23126L616.5125 476.23126Z" fill-rule="nonzero"/><path fill="#000000" d="M645.51874 483.7L644.47186 483.7L644.47186 476.98126Q644.08124 477.34064 643.45624 477.71564Q642.84686 478.075 642.3625 478.2469L642.3625 477.23126Q643.2375 476.8094 643.89374 476.23126Q644.5656 475.6375 644.84686 475.075L645.51874 475.075L645.51874 483.7ZM650.175 479.04376Q649.51874 478.79376 649.1906 478.35626Q648.8781 477.90314 648.8781 477.29376Q648.8781 476.35626 649.55 475.71564Q650.2375 475.075 651.34686 475.075Q652.47186 475.075 653.15936 475.73126Q653.84686 476.3875 653.84686 477.325Q653.84686 477.91876 653.53436 478.35626Q653.22186 478.79376 652.58124 479.04376Q653.3781 479.29376 653.78436 479.8719Q654.1906 480.45 654.1906 481.2469Q654.1906 482.34064 653.40936 483.09064Q652.64374 483.84064 651.3625 483.84064Q650.09686 483.84064 649.3156 483.09064Q648.53436 482.34064 648.53436 481.21564Q648.53436 480.3719 648.95624 479.8094Q649.39374 479.2469 650.175 479.04376ZM649.95624 477.2469Q649.95624 477.85626 650.34686 478.2469Q650.7531 478.6375 651.3781 478.6375Q651.9875 478.6375 652.3781 478.2625Q652.76874 477.8719 652.76874 477.3094Q652.76874 476.73126 652.3625 476.34064Q651.95624 475.9344 651.3625 475.9344Q650.7531 475.9344 650.34686 476.325Q649.95624 476.71564 649.95624 477.2469ZM649.6281 481.21564Q649.6281 481.66876 649.83124 482.09064Q650.05 482.5125 650.47186 482.7469Q650.89374 482.98126 651.3781 482.98126Q652.1281 482.98126 652.6125 482.4969Q653.1125 482.0125 653.1125 481.2625Q653.1125 480.4969 652.6125 479.9969Q652.1125 479.4969 651.34686 479.4969Q650.59686 479.4969 650.1125 479.9969Q649.6281 480.48126 649.6281 481.21564Z" fill-rule="nonzero"/><path fill="#000000" d="M677.6188 483.7L676.5719 483.7L676.5719 476.98126Q676.1813 477.34064 675.5563 477.71564Q674.9469 478.075 674.4625 478.2469L674.4625 477.23126Q675.3375 476.8094 675.9938 476.23126Q676.66565 475.6375 676.9469 475.075L677.6188 475.075L677.6188 483.7ZM680.8063 481.71564L681.8219 481.6219Q681.9469 482.34064 682.3063 482.66876Q682.6813 482.98126 683.2438 482.98126Q683.72815 482.98126 684.0875 482.7625Q684.4625 482.52814 684.6969 482.16876Q684.9313 481.79376 685.0875 481.16876Q685.2438 480.52814 685.2438 479.8719Q685.2438 479.79376 685.2438 479.65314Q684.9313 480.15314 684.3844 480.48126Q683.8375 480.79376 683.1969 480.79376Q682.1188 480.79376 681.3844 480.02814Q680.65 479.2469 680.65 477.98126Q680.65 476.66876 681.41565 475.8719Q682.1969 475.075 683.35315 475.075Q684.1813 475.075 684.8688 475.52814Q685.5719 475.98126 685.9313 476.825Q686.29065 477.65314 686.29065 479.23126Q686.29065 480.8719 685.9313 481.85626Q685.5875 482.825 684.8688 483.34064Q684.16565 483.84064 683.22815 483.84064Q682.2125 483.84064 681.5719 483.29376Q680.9313 482.73126 680.8063 481.71564ZM685.1188 477.91876Q685.1188 477.0125 684.6344 476.48126Q684.16565 475.95 683.47815 475.95Q682.775 475.95 682.2438 476.52814Q681.72815 477.09064 681.72815 478.0125Q681.72815 478.825 682.22815 479.34064Q682.72815 479.85626 683.4469 479.85626Q684.1813 479.85626 684.65 479.34064Q685.1188 478.825 685.1188 477.91876Z" fill-rule="nonzero"/><path fill="#000000" d="M711.2969 482.6844L711.2969 483.7L705.6094 483.7Q705.6094 483.325 705.7344 482.96564Q705.9531 482.3875 706.4219 481.825Q706.90625 481.2625 707.8125 480.52814Q709.21875 479.3719 709.7031 478.7Q710.2031 478.02814 710.2031 477.4344Q710.2031 476.8094 709.75 476.3875Q709.2969 475.95 708.5781 475.95Q707.8125 475.95 707.3594 476.40314Q706.90625 476.85626 706.8906 477.66876L705.8125 477.5594Q705.9219 476.34064 706.6406 475.71564Q707.375 475.075 708.6094 475.075Q709.84375 475.075 710.5625 475.7625Q711.28125 476.45 711.28125 477.46564Q711.28125 477.98126 711.0625 478.48126Q710.8594 478.96564 710.3594 479.52814Q709.875 480.075 708.75 481.02814Q707.7969 481.825 707.5156 482.1219Q707.25 482.40314 707.0781 482.6844L711.2969 482.6844ZM712.75 479.46564Q712.75 477.9344 713.0625 477.0125Q713.375 476.075 713.9844 475.575Q714.6094 475.075 715.5469 475.075Q716.2344 475.075 716.75 475.35626Q717.28125 475.6375 717.625 476.16876Q717.96875 476.6844 718.15625 477.4344Q718.34375 478.1844 718.34375 479.46564Q718.34375 480.98126 718.03125 481.90314Q717.7344 482.825 717.1094 483.34064Q716.5 483.84064 715.5469 483.84064Q714.3125 483.84064 713.59375 482.95Q712.75 481.8875 712.75 479.46564ZM713.8281 479.46564Q713.8281 481.575 714.3281 482.27814Q714.8281 482.98126 715.5469 482.98126Q716.28125 482.98126 716.7656 482.27814Q717.2656 481.575 717.2656 479.46564Q717.2656 477.34064 716.7656 476.65314Q716.28125 475.95 715.53125 475.95Q714.8125 475.95 714.375 476.5594Q713.8281 477.34064 713.8281 479.46564Z" fill-rule="nonzero"/><path fill="#000000" d="M743.39685 482.6844L743.39685 483.7L737.70935 483.7Q737.70935 483.325 737.83435 482.96564Q738.0531 482.3875 738.52185 481.825Q739.0062 481.2625 739.9125 480.52814Q741.3187 479.3719 741.8031 478.7Q742.3031 478.02814 742.3031 477.4344Q742.3031 476.8094 741.85 476.3875Q741.39685 475.95 740.6781 475.95Q739.9125 475.95 739.45935 476.40314Q739.0062 476.85626 738.9906 477.66876L737.9125 477.5594Q738.02185 476.34064 738.7406 475.71564Q739.475 475.075 740.70935 475.075Q741.9437 475.075 742.6625 475.7625Q743.3812 476.45 743.3812 477.46564Q743.3812 477.98126 743.1625 478.48126Q742.95935 478.96564 742.45935 479.52814Q741.975 480.075 740.85 481.02814Q739.89685 481.825 739.6156 482.1219Q739.35 482.40314 739.1781 482.6844L743.39685 482.6844ZM748.8187 483.7L747.77185 483.7L747.77185 476.98126Q747.3812 477.34064 746.7562 477.71564Q746.14685 478.075 745.6625 478.2469L745.6625 477.23126Q746.5375 476.8094 747.1937 476.23126Q747.8656 475.6375 748.14685 475.075L748.8187 475.075L748.8187 483.7Z" fill-rule="nonzero"/><path fill="#000000" d="M775.4969 482.6844L775.4969 483.7L769.8094 483.7Q769.8094 483.325 769.9344 482.96564Q770.15314 482.3875 770.6219 481.825Q771.10626 481.2625 772.0125 480.52814Q773.41876 479.3719 773.90314 478.7Q774.40314 478.02814 774.40314 477.4344Q774.40314 476.8094 773.95 476.3875Q773.4969 475.95 772.77814 475.95Q772.0125 475.95 771.5594 476.40314Q771.10626 476.85626 771.09064 477.66876L770.0125 477.5594Q770.1219 476.34064 770.84064 475.71564Q771.575 475.075 772.8094 475.075Q774.04376 475.075 774.7625 475.7625Q775.48126 476.45 775.48126 477.46564Q775.48126 477.98126 775.2625 478.48126Q775.0594 478.96564 774.5594 479.52814Q774.075 480.075 772.95 481.02814Q771.9969 481.825 771.71564 482.1219Q771.45 482.40314 771.27814 482.6844L775.4969 482.6844ZM782.4969 482.6844L782.4969 483.7L776.8094 483.7Q776.8094 483.325 776.9344 482.96564Q777.15314 482.3875 777.6219 481.825Q778.10626 481.2625 779.0125 480.52814Q780.41876 479.3719 780.90314 478.7Q781.40314 478.02814 781.40314 477.4344Q781.40314 476.8094 780.95 476.3875Q780.4969 475.95 779.77814 475.95Q779.0125 475.95 778.5594 476.40314Q778.10626 476.85626 778.09064 477.66876L777.0125 477.5594Q777.1219 476.34064 777.84064 475.71564Q778.575 475.075 779.8094 475.075Q781.04376 475.075 781.7625 475.7625Q782.48126 476.45 782.48126 477.46564Q782.48126 477.98126 782.2625 478.48126Q782.0594 478.96564 781.5594 479.52814Q781.075 480.075 779.95 481.02814Q778.9969 481.825 778.71564 482.1219Q778.45 482.40314 778.27814 482.6844L782.4969 482.6844Z" fill-rule="nonzero"/><path fill="#000000" d="M807.59686 482.6844L807.59686 483.7L801.90936 483.7Q801.90936 483.325 802.03436 482.96564Q802.2531 482.3875 802.72186 481.825Q803.20624 481.2625 804.1125 480.52814Q805.51874 479.3719 806.0031 478.7Q806.5031 478.02814 806.5031 477.4344Q806.5031 476.8094 806.05 476.3875Q805.59686 475.95 804.8781 475.95Q804.1125 475.95 803.65936 476.40314Q803.20624 476.85626 803.1906 477.66876L802.1125 477.5594Q802.22186 476.34064 802.9406 475.71564Q803.675 475.075 804.90936 475.075Q806.14374 475.075 806.8625 475.7625Q807.58124 476.45 807.58124 477.46564Q807.58124 477.98126 807.3625 478.48126Q807.15936 478.96564 806.65936 479.52814Q806.175 480.075 805.05 481.02814Q804.09686 481.825 803.8156 482.1219Q803.55 482.40314 803.3781 482.6844L807.59686 482.6844ZM809.05 481.4344L810.1125 481.29376Q810.28436 482.1844 810.72186 482.59064Q811.15936 482.98126 811.78436 482.98126Q812.53436 482.98126 813.05 482.46564Q813.5656 481.95 813.5656 481.1844Q813.5656 480.46564 813.08124 479.9969Q812.6125 479.5125 811.8781 479.5125Q811.58124 479.5125 811.1281 479.6375L811.2531 478.7Q811.3625 478.71564 811.425 478.71564Q812.09686 478.71564 812.6281 478.3719Q813.175 478.0125 813.175 477.27814Q813.175 476.7 812.78436 476.325Q812.39374 475.9344 811.76874 475.9344Q811.15936 475.9344 810.7375 476.325Q810.33124 476.71564 810.22186 477.48126L809.15936 477.29376Q809.34686 476.2469 810.03436 475.66876Q810.72186 475.075 811.7375 475.075Q812.4406 475.075 813.03436 475.3875Q813.6281 475.6844 813.9406 476.2Q814.2531 476.71564 814.2531 477.3094Q814.2531 477.85626 813.95624 478.325Q813.65936 478.77814 813.08124 479.04376Q813.83124 479.21564 814.2531 479.77814Q814.675 480.325 814.675 481.16876Q814.675 482.29376 813.84686 483.075Q813.03436 483.85626 811.78436 483.85626Q810.65936 483.85626 809.90936 483.1844Q809.15936 482.4969 809.05 481.4344Z" fill-rule="nonzero"/><path fill="#000000" d="M839.6969 482.6844L839.6969 483.7L834.0094 483.7Q834.0094 483.325 834.1344 482.96564Q834.35315 482.3875 834.8219 481.825Q835.3063 481.2625 836.2125 480.52814Q837.6188 479.3719 838.10315 478.7Q838.60315 478.02814 838.60315 477.4344Q838.60315 476.8094 838.15 476.3875Q837.6969 475.95 836.97815 475.95Q836.2125 475.95 835.7594 476.40314Q835.3063 476.85626 835.29065 477.66876L834.2125 477.5594Q834.3219 476.34064 835.04065 475.71564Q835.775 475.075 837.0094 475.075Q838.2438 475.075 838.9625 475.7625Q839.6813 476.45 839.6813 477.46564Q839.6813 477.98126 839.4625 478.48126Q839.2594 478.96564 838.7594 479.52814Q838.275 480.075 837.15 481.02814Q836.1969 481.825 835.91565 482.1219Q835.65 482.40314 835.47815 482.6844L839.6969 482.6844ZM844.525 483.7L844.525 481.6375L840.8063 481.6375L840.8063 480.66876L844.72815 475.10626L845.5875 475.10626L845.5875 480.66876L846.7438 480.66876L846.7438 481.6375L845.5875 481.6375L845.5875 483.7L844.525 483.7ZM844.525 480.66876L844.525 476.8094L841.8375 480.66876L844.525 480.66876Z" fill-rule="nonzero"/></svg>